<svg width="173" height="24" viewBox="0 0 173 24" fill="none" xmlns="http://www.w3.org/2000/svg">
<g clip-path="url(#clip0_1_65)">
<path d="M1 5V20" stroke="#E5E7EB" stroke-width="0.75" stroke-linecap="square"/>
<path d="M7.25 5V20" stroke="#E5E7EB" stroke-width="0.75" stroke-linecap="square"/>
<path d="M13.5 5V20" stroke="#E5E7EB" stroke-width="0.75" stroke-linecap="square"/>
<path d="M1 7.5H16" stroke="#E5E7EB" stroke-width="0.75" stroke-linecap="square"/>
<path d="M1 13.75H16" stroke="#E5E7EB" stroke-width="0.75" stroke-linecap="square"/>
<path d="M1 20H16" stroke="#E5E7EB" stroke-width="0.75" stroke-linecap="square"/>
<path d="M13.5 10C14.8807 10 16 8.88071 16 7.5C16 6.11929 14.8807 5 13.5 5C12.1193 5 11 6.11929 11 7.5C11 8.88071 12.1193 10 13.5 10Z" fill="#E5E7EB"/>
<path d="M26.912 16.752H27.872V8.048H26.912V6.8H31.44C31.9733 6.8 32.4427 6.87467 32.848 7.024C33.264 7.17333 33.6107 7.376 33.888 7.632C34.176 7.888 34.3893 8.19733 34.528 8.56C34.6773 8.912 34.752 9.296 34.752 9.712V9.904C34.752 10.2133 34.704 10.496 34.608 10.752C34.512 11.008 34.3787 11.2373 34.208 11.44C34.0373 11.6427 33.8347 11.8187 33.6 11.968C33.376 12.1067 33.1307 12.2133 32.864 12.288V12.48C33.3973 12.6293 33.8453 12.9173 34.208 13.344C34.5707 13.76 34.752 14.272 34.752 14.88V15.072C34.752 15.488 34.6773 15.8773 34.528 16.24C34.3893 16.592 34.176 16.9013 33.888 17.168C33.6107 17.424 33.264 17.6267 32.848 17.776C32.4427 17.9253 31.9733 18 31.44 18H26.912V16.752ZM29.216 16.752H31.344C31.9733 16.752 32.4853 16.5973 32.88 16.288C33.2747 15.968 33.472 15.5307 33.472 14.976V14.88C33.472 14.304 33.2853 13.8507 32.912 13.52C32.5387 13.1787 32.032 13.008 31.392 13.008H29.216V16.752ZM29.216 11.76H31.392C32.032 11.76 32.5387 11.5947 32.912 11.264C33.2853 10.9333 33.472 10.48 33.472 9.904V9.808C33.472 9.264 33.2747 8.83733 32.88 8.528C32.4853 8.208 31.9733 8.048 31.344 8.048H29.216V11.76ZM42.8529 10.064H44.1009V18H42.8529V16.56H42.6609C42.4049 17.072 42.0689 17.4773 41.6529 17.776C41.2369 18.0747 40.7089 18.224 40.0689 18.224C39.6315 18.224 39.2262 18.1493 38.8529 18C38.4902 17.8613 38.1755 17.648 37.9089 17.36C37.6529 17.072 37.4502 16.7147 37.3009 16.288C37.1622 15.8613 37.0929 15.3653 37.0929 14.8V10.064H38.3409V14.64C38.3409 15.472 38.5115 16.08 38.8529 16.464C39.1942 16.848 39.7169 17.04 40.4209 17.04C41.1782 17.04 41.7702 16.784 42.1969 16.272C42.6342 15.7493 42.8529 15.056 42.8529 14.192V10.064ZM49.4498 7.696C49.4498 7.38667 49.5564 7.12533 49.7698 6.912C49.9938 6.688 50.2604 6.576 50.5698 6.576C50.8791 6.576 51.1404 6.688 51.3538 6.912C51.5778 7.12533 51.6898 7.38667 51.6898 7.696C51.6898 8.00533 51.5778 8.272 51.3538 8.496C51.1404 8.70933 50.8791 8.816 50.5698 8.816C50.2604 8.816 49.9938 8.70933 49.7698 8.496C49.5564 8.272 49.4498 8.00533 49.4498 7.696ZM47.1778 16.848H49.9618V11.216H47.4658V10.064H51.2098V16.848H53.8018V18H47.1778V16.848ZM56.7826 16.848H59.6626V7.952H56.8786V6.8H60.9106V16.848H63.7906V18H56.7826V16.848ZM72.7235 16.784H72.5315C72.4035 17.0293 72.2382 17.2427 72.0355 17.424C71.8435 17.6053 71.6302 17.7547 71.3955 17.872C71.1715 17.9893 70.9315 18.0747 70.6755 18.128C70.4195 18.192 70.1742 18.224 69.9395 18.224C69.4062 18.224 68.9102 18.1333 68.4515 17.952C67.9928 17.7707 67.5875 17.5093 67.2355 17.168C66.8942 16.8267 66.6222 16.4053 66.4195 15.904C66.2275 15.392 66.1315 14.8107 66.1315 14.16V13.904C66.1315 13.264 66.2328 12.6933 66.4355 12.192C66.6382 11.68 66.9102 11.2533 67.2515 10.912C67.5928 10.56 67.9928 10.2933 68.4515 10.112C68.9102 9.93067 69.3955 9.84 69.9075 9.84C70.4515 9.84 70.9582 9.96267 71.4275 10.208C71.9075 10.4427 72.2755 10.8107 72.5315 11.312H72.7235V6.8H73.9715V18H72.7235V16.784ZM70.0675 17.04C70.4408 17.04 70.7875 16.9707 71.1075 16.832C71.4275 16.6933 71.7048 16.496 71.9395 16.24C72.1848 15.984 72.3768 15.68 72.5155 15.328C72.6542 14.9653 72.7235 14.5653 72.7235 14.128V13.936C72.7235 13.5093 72.6542 13.12 72.5155 12.768C72.3768 12.4053 72.1848 12.096 71.9395 11.84C71.7048 11.584 71.4222 11.3867 71.0915 11.248C70.7715 11.0987 70.4302 11.024 70.0675 11.024C69.6942 11.024 69.3422 11.0933 69.0115 11.232C68.6915 11.3707 68.4088 11.568 68.1635 11.824C67.9288 12.08 67.7422 12.384 67.6035 12.736C67.4755 13.088 67.4115 13.4773 67.4115 13.904V14.16C67.4115 14.608 67.4755 15.008 67.6035 15.36C67.7422 15.712 67.9288 16.016 68.1635 16.272C68.4088 16.5173 68.6915 16.7093 69.0115 16.848C69.3315 16.976 69.6835 17.04 70.0675 17.04ZM78.8404 7.696C78.8404 7.38667 78.947 7.12533 79.1604 6.912C79.3844 6.688 79.651 6.576 79.9604 6.576C80.2697 6.576 80.531 6.688 80.7444 6.912C80.9684 7.12533 81.0804 7.38667 81.0804 7.696C81.0804 8.00533 80.9684 8.272 80.7444 8.496C80.531 8.70933 80.2697 8.816 79.9604 8.816C79.651 8.816 79.3844 8.70933 79.1604 8.496C78.947 8.272 78.8404 8.00533 78.8404 7.696ZM76.5684 16.848H79.3524V11.216H76.8564V10.064H80.6004V16.848H83.1924V18H76.5684V16.848ZM87.4213 18H86.1733V10.064H87.4213V11.408H87.6133C88.1039 10.3627 88.9573 9.84 90.1733 9.84C91.0906 9.84 91.8213 10.128 92.3653 10.704C92.9093 11.2693 93.1813 12.1227 93.1813 13.264V18H91.9333V13.52C91.9333 12.688 91.7466 12.064 91.3733 11.648C90.9999 11.232 90.4933 11.024 89.8533 11.024C89.0959 11.024 88.4986 11.2853 88.0613 11.808C87.6346 12.32 87.4213 13.008 87.4213 13.872V18ZM102.002 16.784H101.81C101.554 17.264 101.202 17.6267 100.754 17.872C100.317 18.1067 99.8368 18.224 99.3141 18.224C98.7808 18.224 98.2795 18.1333 97.8101 17.952C97.3408 17.7707 96.9248 17.5093 96.5621 17.168C96.2101 16.8267 95.9275 16.4053 95.7141 15.904C95.5115 15.392 95.4101 14.8107 95.4101 14.16V13.904C95.4101 13.264 95.5168 12.6933 95.7301 12.192C95.9435 11.68 96.2261 11.2533 96.5781 10.912C96.9301 10.56 97.3408 10.2933 97.8101 10.112C98.2795 9.93067 98.7701 9.84 99.2821 9.84C99.8581 9.84 100.359 9.968 100.786 10.224C101.223 10.4693 101.565 10.832 101.81 11.312H102.002V10.064H103.25V19.952C103.25 20.3147 103.133 20.6133 102.898 20.848C102.674 21.0827 102.381 21.2 102.018 21.2H96.8501V20.048H101.57C101.858 20.048 102.002 19.888 102.002 19.568V16.784ZM99.3461 17.04C99.7195 17.04 100.066 16.9707 100.386 16.832C100.706 16.6933 100.983 16.496 101.218 16.24C101.463 15.984 101.655 15.68 101.794 15.328C101.933 14.9653 102.002 14.5653 102.002 14.128V13.936C102.002 13.5093 101.933 13.12 101.794 12.768C101.655 12.4053 101.463 12.096 101.218 11.84C100.983 11.584 100.701 11.3867 100.37 11.248C100.05 11.0987 99.7088 11.024 99.3461 11.024C98.9728 11.024 98.6208 11.0933 98.2901 11.232C97.9701 11.3707 97.6875 11.568 97.4421 11.824C97.2075 12.08 97.0208 12.384 96.8821 12.736C96.7541 13.088 96.6901 13.4773 96.6901 13.904V14.16C96.6901 14.608 96.7541 15.008 96.8821 15.36C97.0208 15.712 97.2075 16.016 97.4421 16.272C97.6875 16.5173 97.9701 16.7093 98.2901 16.848C98.6101 16.976 98.9621 17.04 99.3461 17.04ZM115.484 10.064H117.932V8.048C117.932 7.68533 118.044 7.38667 118.268 7.152C118.503 6.91733 118.801 6.8 119.164 6.8H122.3V7.952H119.612C119.324 7.952 119.18 8.112 119.18 8.432V10.064H122.492V11.216H119.18V18H117.932V11.216H115.484V10.064ZM132.849 14.128C132.849 14.7893 132.737 15.376 132.513 15.888C132.299 16.3893 132.011 16.816 131.649 17.168C131.286 17.5093 130.859 17.7707 130.369 17.952C129.889 18.1333 129.387 18.224 128.865 18.224C128.331 18.224 127.825 18.1333 127.345 17.952C126.865 17.7707 126.443 17.5093 126.081 17.168C125.718 16.816 125.425 16.3893 125.201 15.888C124.987 15.376 124.881 14.7893 124.881 14.128V13.936C124.881 13.2853 124.987 12.7093 125.201 12.208C125.425 11.696 125.718 11.264 126.081 10.912C126.454 10.56 126.881 10.2933 127.361 10.112C127.841 9.93067 128.342 9.84 128.865 9.84C129.387 9.84 129.889 9.93067 130.369 10.112C130.849 10.2933 131.27 10.56 131.633 10.912C132.006 11.264 132.299 11.696 132.513 12.208C132.737 12.7093 132.849 13.2853 132.849 13.936V14.128ZM128.865 17.04C129.249 17.04 129.601 16.976 129.921 16.848C130.251 16.7093 130.539 16.512 130.785 16.256C131.03 16 131.222 15.696 131.361 15.344C131.499 14.9813 131.569 14.576 131.569 14.128V13.936C131.569 13.5093 131.499 13.12 131.361 12.768C131.222 12.4053 131.03 12.096 130.785 11.84C130.539 11.584 130.251 11.3867 129.921 11.248C129.59 11.0987 129.238 11.024 128.865 11.024C128.491 11.024 128.139 11.0987 127.809 11.248C127.478 11.3867 127.19 11.584 126.945 11.84C126.699 12.096 126.507 12.4053 126.369 12.768C126.23 13.12 126.161 13.5093 126.161 13.936V14.128C126.161 14.576 126.23 14.9813 126.369 15.344C126.507 15.696 126.699 16 126.945 16.256C127.19 16.512 127.473 16.7093 127.793 16.848C128.123 16.976 128.481 17.04 128.865 17.04ZM134.71 10.064H137.59V11.12H137.782C137.984 10.6827 138.272 10.3627 138.646 10.16C139.019 9.94667 139.446 9.84 139.926 9.84C140.726 9.84 141.371 10.1013 141.862 10.624C142.352 11.1467 142.614 11.9093 142.646 12.912L141.334 13.104C141.334 12.368 141.158 11.84 140.806 11.52C140.454 11.1893 140.022 11.024 139.51 11.024C139.179 11.024 138.891 11.088 138.646 11.216C138.411 11.344 138.214 11.52 138.054 11.744C137.894 11.968 137.776 12.2293 137.702 12.528C137.627 12.8267 137.59 13.1467 137.59 13.488V16.848H139.606V18H134.518V16.848H136.342V11.216H134.71V10.064ZM153.791 6.8H155.231L158.159 17.424H158.351L161.279 6.8H162.719L159.551 18H156.959L153.791 6.8ZM168.116 16.976C168.575 16.976 168.964 16.9013 169.284 16.752C169.615 16.592 169.882 16.384 170.084 16.128C170.298 15.8613 170.452 15.5627 170.548 15.232C170.655 14.8907 170.708 14.5333 170.708 14.16V13.968H172.052V14.16C172.052 14.7253 171.967 15.2587 171.796 15.76C171.626 16.2507 171.375 16.6827 171.044 17.056C170.714 17.4187 170.303 17.7067 169.812 17.92C169.322 18.1227 168.756 18.224 168.116 18.224C166.879 18.224 165.914 17.8347 165.22 17.056C164.527 16.2773 164.18 15.1413 164.18 13.648V11.152C164.18 9.70133 164.527 8.576 165.22 7.776C165.914 6.976 166.879 6.576 168.116 6.576C168.756 6.576 169.322 6.68267 169.812 6.896C170.303 7.09867 170.714 7.38667 171.044 7.76C171.375 8.12267 171.626 8.55467 171.796 9.056C171.967 9.54667 172.052 10.0747 172.052 10.64V10.832H170.708V10.64C170.698 10.2773 170.639 9.92533 170.532 9.584C170.436 9.24267 170.282 8.944 170.068 8.688C169.866 8.42133 169.604 8.21333 169.284 8.064C168.964 7.904 168.575 7.824 168.116 7.824C167.252 7.824 166.602 8.13867 166.164 8.768C165.738 9.39733 165.524 10.224 165.524 11.248V13.552C165.524 14.6507 165.738 15.4987 166.164 16.096C166.602 16.6827 167.252 16.976 168.116 16.976Z" fill="#E5E7EB"/>
</g>
<defs>
<clipPath id="clip0_1_65">
<rect width="173" height="24" fill="white"/>
</clipPath>
</defs>
</svg>
