<svg width="173" height="24" viewBox="0 0 173 24" fill="none" xmlns="http://www.w3.org/2000/svg">
<g clip-path="url(#clip0_1_90)">
<path d="M1 5V20" stroke="#374151" stroke-width="0.75" stroke-linecap="square"/>
<path d="M7.25 5V20" stroke="#374151" stroke-width="0.75" stroke-linecap="square"/>
<path d="M13.5 5V20" stroke="#374151" stroke-width="0.75" stroke-linecap="square"/>
<path d="M1 7.5H16" stroke="#374151" stroke-width="0.75" stroke-linecap="square"/>
<path d="M1 13.75H16" stroke="#374151" stroke-width="0.75" stroke-linecap="square"/>
<path d="M1 20H16" stroke="#374151" stroke-width="0.75" stroke-linecap="square"/>
<path d="M13.5 5.375C14.6736 5.375 15.625 6.32639 15.625 7.5C15.625 8.67361 14.6736 9.625 13.5 9.625C12.3264 9.625 11.375 8.67361 11.375 7.5C11.375 6.32639 12.3264 5.375 13.5 5.375Z" fill="#374151" stroke="#374151" stroke-width="0.75"/>
<mask id="path-8-inside-1_1_90" fill="white">
<path d="M26.912 16.752H27.872V8.048H26.912V6.8H31.44C31.9733 6.8 32.4427 6.87467 32.848 7.024C33.264 7.17333 33.6107 7.376 33.888 7.632C34.176 7.888 34.3893 8.19733 34.528 8.56C34.6773 8.912 34.752 9.296 34.752 9.712V9.904C34.752 10.2133 34.704 10.496 34.608 10.752C34.512 11.008 34.3787 11.2373 34.208 11.44C34.0373 11.6427 33.8347 11.8187 33.6 11.968C33.376 12.1067 33.1307 12.2133 32.864 12.288V12.48C33.3973 12.6293 33.8453 12.9173 34.208 13.344C34.5707 13.76 34.752 14.272 34.752 14.88V15.072C34.752 15.488 34.6773 15.8773 34.528 16.24C34.3893 16.592 34.176 16.9013 33.888 17.168C33.6107 17.424 33.264 17.6267 32.848 17.776C32.4427 17.9253 31.9733 18 31.44 18H26.912V16.752ZM29.216 16.752H31.344C31.9733 16.752 32.4853 16.5973 32.88 16.288C33.2747 15.968 33.472 15.5307 33.472 14.976V14.88C33.472 14.304 33.2853 13.8507 32.912 13.52C32.5387 13.1787 32.032 13.008 31.392 13.008H29.216V16.752ZM29.216 11.76H31.392C32.032 11.76 32.5387 11.5947 32.912 11.264C33.2853 10.9333 33.472 10.48 33.472 9.904V9.808C33.472 9.264 33.2747 8.83733 32.88 8.528C32.4853 8.208 31.9733 8.048 31.344 8.048H29.216V11.76ZM42.8529 10.064H44.1009V18H42.8529V16.56H42.6609C42.4049 17.072 42.0689 17.4773 41.6529 17.776C41.2369 18.0747 40.7089 18.224 40.0689 18.224C39.6315 18.224 39.2262 18.1493 38.8529 18C38.4902 17.8613 38.1755 17.648 37.9089 17.36C37.6529 17.072 37.4502 16.7147 37.3009 16.288C37.1622 15.8613 37.0929 15.3653 37.0929 14.8V10.064H38.3409V14.64C38.3409 15.472 38.5115 16.08 38.8529 16.464C39.1942 16.848 39.7169 17.04 40.4209 17.04C41.1782 17.04 41.7702 16.784 42.1969 16.272C42.6342 15.7493 42.8529 15.056 42.8529 14.192V10.064ZM49.4498 7.696C49.4498 7.38667 49.5564 7.12533 49.7698 6.912C49.9938 6.688 50.2604 6.576 50.5698 6.576C50.8791 6.576 51.1404 6.688 51.3538 6.912C51.5778 7.12533 51.6898 7.38667 51.6898 7.696C51.6898 8.00533 51.5778 8.272 51.3538 8.496C51.1404 8.70933 50.8791 8.816 50.5698 8.816C50.2604 8.816 49.9938 8.70933 49.7698 8.496C49.5564 8.272 49.4498 8.00533 49.4498 7.696ZM47.1778 16.848H49.9618V11.216H47.4658V10.064H51.2098V16.848H53.8018V18H47.1778V16.848ZM56.7826 16.848H59.6626V7.952H56.8786V6.8H60.9106V16.848H63.7906V18H56.7826V16.848ZM72.7235 16.784H72.5315C72.4035 17.0293 72.2382 17.2427 72.0355 17.424C71.8435 17.6053 71.6302 17.7547 71.3955 17.872C71.1715 17.9893 70.9315 18.0747 70.6755 18.128C70.4195 18.192 70.1742 18.224 69.9395 18.224C69.4062 18.224 68.9102 18.1333 68.4515 17.952C67.9928 17.7707 67.5875 17.5093 67.2355 17.168C66.8942 16.8267 66.6222 16.4053 66.4195 15.904C66.2275 15.392 66.1315 14.8107 66.1315 14.16V13.904C66.1315 13.264 66.2328 12.6933 66.4355 12.192C66.6382 11.68 66.9102 11.2533 67.2515 10.912C67.5928 10.56 67.9928 10.2933 68.4515 10.112C68.9102 9.93067 69.3955 9.84 69.9075 9.84C70.4515 9.84 70.9582 9.96267 71.4275 10.208C71.9075 10.4427 72.2755 10.8107 72.5315 11.312H72.7235V6.8H73.9715V18H72.7235V16.784ZM70.0675 17.04C70.4408 17.04 70.7875 16.9707 71.1075 16.832C71.4275 16.6933 71.7048 16.496 71.9395 16.24C72.1848 15.984 72.3768 15.68 72.5155 15.328C72.6542 14.9653 72.7235 14.5653 72.7235 14.128V13.936C72.7235 13.5093 72.6542 13.12 72.5155 12.768C72.3768 12.4053 72.1848 12.096 71.9395 11.84C71.7048 11.584 71.4222 11.3867 71.0915 11.248C70.7715 11.0987 70.4302 11.024 70.0675 11.024C69.6942 11.024 69.3422 11.0933 69.0115 11.232C68.6915 11.3707 68.4088 11.568 68.1635 11.824C67.9288 12.08 67.7422 12.384 67.6035 12.736C67.4755 13.088 67.4115 13.4773 67.4115 13.904V14.16C67.4115 14.608 67.4755 15.008 67.6035 15.36C67.7422 15.712 67.9288 16.016 68.1635 16.272C68.4088 16.5173 68.6915 16.7093 69.0115 16.848C69.3315 16.976 69.6835 17.04 70.0675 17.04ZM78.8404 7.696C78.8404 7.38667 78.947 7.12533 79.1604 6.912C79.3844 6.688 79.651 6.576 79.9604 6.576C80.2697 6.576 80.531 6.688 80.7444 6.912C80.9684 7.12533 81.0804 7.38667 81.0804 7.696C81.0804 8.00533 80.9684 8.272 80.7444 8.496C80.531 8.70933 80.2697 8.816 79.9604 8.816C79.651 8.816 79.3844 8.70933 79.1604 8.496C78.947 8.272 78.8404 8.00533 78.8404 7.696ZM76.5684 16.848H79.3524V11.216H76.8564V10.064H80.6004V16.848H83.1924V18H76.5684V16.848ZM87.4213 18H86.1733V10.064H87.4213V11.408H87.6133C88.1039 10.3627 88.9573 9.84 90.1733 9.84C91.0906 9.84 91.8213 10.128 92.3653 10.704C92.9093 11.2693 93.1813 12.1227 93.1813 13.264V18H91.9333V13.52C91.9333 12.688 91.7466 12.064 91.3733 11.648C90.9999 11.232 90.4933 11.024 89.8533 11.024C89.0959 11.024 88.4986 11.2853 88.0613 11.808C87.6346 12.32 87.4213 13.008 87.4213 13.872V18ZM102.002 16.784H101.81C101.554 17.264 101.202 17.6267 100.754 17.872C100.317 18.1067 99.8368 18.224 99.3141 18.224C98.7808 18.224 98.2795 18.1333 97.8101 17.952C97.3408 17.7707 96.9248 17.5093 96.5621 17.168C96.2101 16.8267 95.9275 16.4053 95.7141 15.904C95.5115 15.392 95.4101 14.8107 95.4101 14.16V13.904C95.4101 13.264 95.5168 12.6933 95.7301 12.192C95.9435 11.68 96.2261 11.2533 96.5781 10.912C96.9301 10.56 97.3408 10.2933 97.8101 10.112C98.2795 9.93067 98.7701 9.84 99.2821 9.84C99.8581 9.84 100.359 9.968 100.786 10.224C101.223 10.4693 101.565 10.832 101.81 11.312H102.002V10.064H103.25V19.952C103.25 20.3147 103.133 20.6133 102.898 20.848C102.674 21.0827 102.381 21.2 102.018 21.2H96.8501V20.048H101.57C101.858 20.048 102.002 19.888 102.002 19.568V16.784ZM99.3461 17.04C99.7195 17.04 100.066 16.9707 100.386 16.832C100.706 16.6933 100.983 16.496 101.218 16.24C101.463 15.984 101.655 15.68 101.794 15.328C101.933 14.9653 102.002 14.5653 102.002 14.128V13.936C102.002 13.5093 101.933 13.12 101.794 12.768C101.655 12.4053 101.463 12.096 101.218 11.84C100.983 11.584 100.701 11.3867 100.37 11.248C100.05 11.0987 99.7088 11.024 99.3461 11.024C98.9728 11.024 98.6208 11.0933 98.2901 11.232C97.9701 11.3707 97.6875 11.568 97.4421 11.824C97.2075 12.08 97.0208 12.384 96.8821 12.736C96.7541 13.088 96.6901 13.4773 96.6901 13.904V14.16C96.6901 14.608 96.7541 15.008 96.8821 15.36C97.0208 15.712 97.2075 16.016 97.4421 16.272C97.6875 16.5173 97.9701 16.7093 98.2901 16.848C98.6101 16.976 98.9621 17.04 99.3461 17.04ZM115.484 10.064H117.932V8.048C117.932 7.68533 118.044 7.38667 118.268 7.152C118.503 6.91733 118.801 6.8 119.164 6.8H122.3V7.952H119.612C119.324 7.952 119.18 8.112 119.18 8.432V10.064H122.492V11.216H119.18V18H117.932V11.216H115.484V10.064ZM132.849 14.128C132.849 14.7893 132.737 15.376 132.513 15.888C132.299 16.3893 132.011 16.816 131.649 17.168C131.286 17.5093 130.859 17.7707 130.369 17.952C129.889 18.1333 129.387 18.224 128.865 18.224C128.331 18.224 127.825 18.1333 127.345 17.952C126.865 17.7707 126.443 17.5093 126.081 17.168C125.718 16.816 125.425 16.3893 125.201 15.888C124.987 15.376 124.881 14.7893 124.881 14.128V13.936C124.881 13.2853 124.987 12.7093 125.201 12.208C125.425 11.696 125.718 11.264 126.081 10.912C126.454 10.56 126.881 10.2933 127.361 10.112C127.841 9.93067 128.342 9.84 128.865 9.84C129.387 9.84 129.889 9.93067 130.369 10.112C130.849 10.2933 131.27 10.56 131.633 10.912C132.006 11.264 132.299 11.696 132.513 12.208C132.737 12.7093 132.849 13.2853 132.849 13.936V14.128ZM128.865 17.04C129.249 17.04 129.601 16.976 129.921 16.848C130.251 16.7093 130.539 16.512 130.785 16.256C131.03 16 131.222 15.696 131.361 15.344C131.499 14.9813 131.569 14.576 131.569 14.128V13.936C131.569 13.5093 131.499 13.12 131.361 12.768C131.222 12.4053 131.03 12.096 130.785 11.84C130.539 11.584 130.251 11.3867 129.921 11.248C129.59 11.0987 129.238 11.024 128.865 11.024C128.491 11.024 128.139 11.0987 127.809 11.248C127.478 11.3867 127.19 11.584 126.945 11.84C126.699 12.096 126.507 12.4053 126.369 12.768C126.23 13.12 126.161 13.5093 126.161 13.936V14.128C126.161 14.576 126.23 14.9813 126.369 15.344C126.507 15.696 126.699 16 126.945 16.256C127.19 16.512 127.473 16.7093 127.793 16.848C128.123 16.976 128.481 17.04 128.865 17.04ZM134.71 10.064H137.59V11.12H137.782C137.984 10.6827 138.272 10.3627 138.646 10.16C139.019 9.94667 139.446 9.84 139.926 9.84C140.726 9.84 141.371 10.1013 141.862 10.624C142.352 11.1467 142.614 11.9093 142.646 12.912L141.334 13.104C141.334 12.368 141.158 11.84 140.806 11.52C140.454 11.1893 140.022 11.024 139.51 11.024C139.179 11.024 138.891 11.088 138.646 11.216C138.411 11.344 138.214 11.52 138.054 11.744C137.894 11.968 137.776 12.2293 137.702 12.528C137.627 12.8267 137.59 13.1467 137.59 13.488V16.848H139.606V18H134.518V16.848H136.342V11.216H134.71V10.064ZM153.791 6.8H155.231L158.159 17.424H158.351L161.279 6.8H162.719L159.551 18H156.959L153.791 6.8ZM168.116 16.976C168.575 16.976 168.964 16.9013 169.284 16.752C169.615 16.592 169.882 16.384 170.084 16.128C170.298 15.8613 170.452 15.5627 170.548 15.232C170.655 14.8907 170.708 14.5333 170.708 14.16V13.968H172.052V14.16C172.052 14.7253 171.967 15.2587 171.796 15.76C171.626 16.2507 171.375 16.6827 171.044 17.056C170.714 17.4187 170.303 17.7067 169.812 17.92C169.322 18.1227 168.756 18.224 168.116 18.224C166.879 18.224 165.914 17.8347 165.22 17.056C164.527 16.2773 164.18 15.1413 164.18 13.648V11.152C164.18 9.70133 164.527 8.576 165.22 7.776C165.914 6.976 166.879 6.576 168.116 6.576C168.756 6.576 169.322 6.68267 169.812 6.896C170.303 7.09867 170.714 7.38667 171.044 7.76C171.375 8.12267 171.626 8.55467 171.796 9.056C171.967 9.54667 172.052 10.0747 172.052 10.64V10.832H170.708V10.64C170.698 10.2773 170.639 9.92533 170.532 9.584C170.436 9.24267 170.282 8.944 170.068 8.688C169.866 8.42133 169.604 8.21333 169.284 8.064C168.964 7.904 168.575 7.824 168.116 7.824C167.252 7.824 166.602 8.13867 166.164 8.768C165.738 9.39733 165.524 10.224 165.524 11.248V13.552C165.524 14.6507 165.738 15.4987 166.164 16.096C166.602 16.6827 167.252 16.976 168.116 16.976Z"/>
</mask>
<path d="M26.912 16.752H27.872V8.048H26.912V6.8H31.44C31.9733 6.8 32.4427 6.87467 32.848 7.024C33.264 7.17333 33.6107 7.376 33.888 7.632C34.176 7.888 34.3893 8.19733 34.528 8.56C34.6773 8.912 34.752 9.296 34.752 9.712V9.904C34.752 10.2133 34.704 10.496 34.608 10.752C34.512 11.008 34.3787 11.2373 34.208 11.44C34.0373 11.6427 33.8347 11.8187 33.6 11.968C33.376 12.1067 33.1307 12.2133 32.864 12.288V12.48C33.3973 12.6293 33.8453 12.9173 34.208 13.344C34.5707 13.76 34.752 14.272 34.752 14.88V15.072C34.752 15.488 34.6773 15.8773 34.528 16.24C34.3893 16.592 34.176 16.9013 33.888 17.168C33.6107 17.424 33.264 17.6267 32.848 17.776C32.4427 17.9253 31.9733 18 31.44 18H26.912V16.752ZM29.216 16.752H31.344C31.9733 16.752 32.4853 16.5973 32.88 16.288C33.2747 15.968 33.472 15.5307 33.472 14.976V14.88C33.472 14.304 33.2853 13.8507 32.912 13.52C32.5387 13.1787 32.032 13.008 31.392 13.008H29.216V16.752ZM29.216 11.76H31.392C32.032 11.76 32.5387 11.5947 32.912 11.264C33.2853 10.9333 33.472 10.48 33.472 9.904V9.808C33.472 9.264 33.2747 8.83733 32.88 8.528C32.4853 8.208 31.9733 8.048 31.344 8.048H29.216V11.76ZM42.8529 10.064H44.1009V18H42.8529V16.56H42.6609C42.4049 17.072 42.0689 17.4773 41.6529 17.776C41.2369 18.0747 40.7089 18.224 40.0689 18.224C39.6315 18.224 39.2262 18.1493 38.8529 18C38.4902 17.8613 38.1755 17.648 37.9089 17.36C37.6529 17.072 37.4502 16.7147 37.3009 16.288C37.1622 15.8613 37.0929 15.3653 37.0929 14.8V10.064H38.3409V14.64C38.3409 15.472 38.5115 16.08 38.8529 16.464C39.1942 16.848 39.7169 17.04 40.4209 17.04C41.1782 17.04 41.7702 16.784 42.1969 16.272C42.6342 15.7493 42.8529 15.056 42.8529 14.192V10.064ZM49.4498 7.696C49.4498 7.38667 49.5564 7.12533 49.7698 6.912C49.9938 6.688 50.2604 6.576 50.5698 6.576C50.8791 6.576 51.1404 6.688 51.3538 6.912C51.5778 7.12533 51.6898 7.38667 51.6898 7.696C51.6898 8.00533 51.5778 8.272 51.3538 8.496C51.1404 8.70933 50.8791 8.816 50.5698 8.816C50.2604 8.816 49.9938 8.70933 49.7698 8.496C49.5564 8.272 49.4498 8.00533 49.4498 7.696ZM47.1778 16.848H49.9618V11.216H47.4658V10.064H51.2098V16.848H53.8018V18H47.1778V16.848ZM56.7826 16.848H59.6626V7.952H56.8786V6.8H60.9106V16.848H63.7906V18H56.7826V16.848ZM72.7235 16.784H72.5315C72.4035 17.0293 72.2382 17.2427 72.0355 17.424C71.8435 17.6053 71.6302 17.7547 71.3955 17.872C71.1715 17.9893 70.9315 18.0747 70.6755 18.128C70.4195 18.192 70.1742 18.224 69.9395 18.224C69.4062 18.224 68.9102 18.1333 68.4515 17.952C67.9928 17.7707 67.5875 17.5093 67.2355 17.168C66.8942 16.8267 66.6222 16.4053 66.4195 15.904C66.2275 15.392 66.1315 14.8107 66.1315 14.16V13.904C66.1315 13.264 66.2328 12.6933 66.4355 12.192C66.6382 11.68 66.9102 11.2533 67.2515 10.912C67.5928 10.56 67.9928 10.2933 68.4515 10.112C68.9102 9.93067 69.3955 9.84 69.9075 9.84C70.4515 9.84 70.9582 9.96267 71.4275 10.208C71.9075 10.4427 72.2755 10.8107 72.5315 11.312H72.7235V6.8H73.9715V18H72.7235V16.784ZM70.0675 17.04C70.4408 17.04 70.7875 16.9707 71.1075 16.832C71.4275 16.6933 71.7048 16.496 71.9395 16.24C72.1848 15.984 72.3768 15.68 72.5155 15.328C72.6542 14.9653 72.7235 14.5653 72.7235 14.128V13.936C72.7235 13.5093 72.6542 13.12 72.5155 12.768C72.3768 12.4053 72.1848 12.096 71.9395 11.84C71.7048 11.584 71.4222 11.3867 71.0915 11.248C70.7715 11.0987 70.4302 11.024 70.0675 11.024C69.6942 11.024 69.3422 11.0933 69.0115 11.232C68.6915 11.3707 68.4088 11.568 68.1635 11.824C67.9288 12.08 67.7422 12.384 67.6035 12.736C67.4755 13.088 67.4115 13.4773 67.4115 13.904V14.16C67.4115 14.608 67.4755 15.008 67.6035 15.36C67.7422 15.712 67.9288 16.016 68.1635 16.272C68.4088 16.5173 68.6915 16.7093 69.0115 16.848C69.3315 16.976 69.6835 17.04 70.0675 17.04ZM78.8404 7.696C78.8404 7.38667 78.947 7.12533 79.1604 6.912C79.3844 6.688 79.651 6.576 79.9604 6.576C80.2697 6.576 80.531 6.688 80.7444 6.912C80.9684 7.12533 81.0804 7.38667 81.0804 7.696C81.0804 8.00533 80.9684 8.272 80.7444 8.496C80.531 8.70933 80.2697 8.816 79.9604 8.816C79.651 8.816 79.3844 8.70933 79.1604 8.496C78.947 8.272 78.8404 8.00533 78.8404 7.696ZM76.5684 16.848H79.3524V11.216H76.8564V10.064H80.6004V16.848H83.1924V18H76.5684V16.848ZM87.4213 18H86.1733V10.064H87.4213V11.408H87.6133C88.1039 10.3627 88.9573 9.84 90.1733 9.84C91.0906 9.84 91.8213 10.128 92.3653 10.704C92.9093 11.2693 93.1813 12.1227 93.1813 13.264V18H91.9333V13.52C91.9333 12.688 91.7466 12.064 91.3733 11.648C90.9999 11.232 90.4933 11.024 89.8533 11.024C89.0959 11.024 88.4986 11.2853 88.0613 11.808C87.6346 12.32 87.4213 13.008 87.4213 13.872V18ZM102.002 16.784H101.81C101.554 17.264 101.202 17.6267 100.754 17.872C100.317 18.1067 99.8368 18.224 99.3141 18.224C98.7808 18.224 98.2795 18.1333 97.8101 17.952C97.3408 17.7707 96.9248 17.5093 96.5621 17.168C96.2101 16.8267 95.9275 16.4053 95.7141 15.904C95.5115 15.392 95.4101 14.8107 95.4101 14.16V13.904C95.4101 13.264 95.5168 12.6933 95.7301 12.192C95.9435 11.68 96.2261 11.2533 96.5781 10.912C96.9301 10.56 97.3408 10.2933 97.8101 10.112C98.2795 9.93067 98.7701 9.84 99.2821 9.84C99.8581 9.84 100.359 9.968 100.786 10.224C101.223 10.4693 101.565 10.832 101.81 11.312H102.002V10.064H103.25V19.952C103.25 20.3147 103.133 20.6133 102.898 20.848C102.674 21.0827 102.381 21.2 102.018 21.2H96.8501V20.048H101.57C101.858 20.048 102.002 19.888 102.002 19.568V16.784ZM99.3461 17.04C99.7195 17.04 100.066 16.9707 100.386 16.832C100.706 16.6933 100.983 16.496 101.218 16.24C101.463 15.984 101.655 15.68 101.794 15.328C101.933 14.9653 102.002 14.5653 102.002 14.128V13.936C102.002 13.5093 101.933 13.12 101.794 12.768C101.655 12.4053 101.463 12.096 101.218 11.84C100.983 11.584 100.701 11.3867 100.37 11.248C100.05 11.0987 99.7088 11.024 99.3461 11.024C98.9728 11.024 98.6208 11.0933 98.2901 11.232C97.9701 11.3707 97.6875 11.568 97.4421 11.824C97.2075 12.08 97.0208 12.384 96.8821 12.736C96.7541 13.088 96.6901 13.4773 96.6901 13.904V14.16C96.6901 14.608 96.7541 15.008 96.8821 15.36C97.0208 15.712 97.2075 16.016 97.4421 16.272C97.6875 16.5173 97.9701 16.7093 98.2901 16.848C98.6101 16.976 98.9621 17.04 99.3461 17.04ZM115.484 10.064H117.932V8.048C117.932 7.68533 118.044 7.38667 118.268 7.152C118.503 6.91733 118.801 6.8 119.164 6.8H122.3V7.952H119.612C119.324 7.952 119.18 8.112 119.18 8.432V10.064H122.492V11.216H119.18V18H117.932V11.216H115.484V10.064ZM132.849 14.128C132.849 14.7893 132.737 15.376 132.513 15.888C132.299 16.3893 132.011 16.816 131.649 17.168C131.286 17.5093 130.859 17.7707 130.369 17.952C129.889 18.1333 129.387 18.224 128.865 18.224C128.331 18.224 127.825 18.1333 127.345 17.952C126.865 17.7707 126.443 17.5093 126.081 17.168C125.718 16.816 125.425 16.3893 125.201 15.888C124.987 15.376 124.881 14.7893 124.881 14.128V13.936C124.881 13.2853 124.987 12.7093 125.201 12.208C125.425 11.696 125.718 11.264 126.081 10.912C126.454 10.56 126.881 10.2933 127.361 10.112C127.841 9.93067 128.342 9.84 128.865 9.84C129.387 9.84 129.889 9.93067 130.369 10.112C130.849 10.2933 131.27 10.56 131.633 10.912C132.006 11.264 132.299 11.696 132.513 12.208C132.737 12.7093 132.849 13.2853 132.849 13.936V14.128ZM128.865 17.04C129.249 17.04 129.601 16.976 129.921 16.848C130.251 16.7093 130.539 16.512 130.785 16.256C131.03 16 131.222 15.696 131.361 15.344C131.499 14.9813 131.569 14.576 131.569 14.128V13.936C131.569 13.5093 131.499 13.12 131.361 12.768C131.222 12.4053 131.03 12.096 130.785 11.84C130.539 11.584 130.251 11.3867 129.921 11.248C129.59 11.0987 129.238 11.024 128.865 11.024C128.491 11.024 128.139 11.0987 127.809 11.248C127.478 11.3867 127.19 11.584 126.945 11.84C126.699 12.096 126.507 12.4053 126.369 12.768C126.23 13.12 126.161 13.5093 126.161 13.936V14.128C126.161 14.576 126.23 14.9813 126.369 15.344C126.507 15.696 126.699 16 126.945 16.256C127.19 16.512 127.473 16.7093 127.793 16.848C128.123 16.976 128.481 17.04 128.865 17.04ZM134.71 10.064H137.59V11.12H137.782C137.984 10.6827 138.272 10.3627 138.646 10.16C139.019 9.94667 139.446 9.84 139.926 9.84C140.726 9.84 141.371 10.1013 141.862 10.624C142.352 11.1467 142.614 11.9093 142.646 12.912L141.334 13.104C141.334 12.368 141.158 11.84 140.806 11.52C140.454 11.1893 140.022 11.024 139.51 11.024C139.179 11.024 138.891 11.088 138.646 11.216C138.411 11.344 138.214 11.52 138.054 11.744C137.894 11.968 137.776 12.2293 137.702 12.528C137.627 12.8267 137.59 13.1467 137.59 13.488V16.848H139.606V18H134.518V16.848H136.342V11.216H134.71V10.064ZM153.791 6.8H155.231L158.159 17.424H158.351L161.279 6.8H162.719L159.551 18H156.959L153.791 6.8ZM168.116 16.976C168.575 16.976 168.964 16.9013 169.284 16.752C169.615 16.592 169.882 16.384 170.084 16.128C170.298 15.8613 170.452 15.5627 170.548 15.232C170.655 14.8907 170.708 14.5333 170.708 14.16V13.968H172.052V14.16C172.052 14.7253 171.967 15.2587 171.796 15.76C171.626 16.2507 171.375 16.6827 171.044 17.056C170.714 17.4187 170.303 17.7067 169.812 17.92C169.322 18.1227 168.756 18.224 168.116 18.224C166.879 18.224 165.914 17.8347 165.22 17.056C164.527 16.2773 164.18 15.1413 164.18 13.648V11.152C164.18 9.70133 164.527 8.576 165.22 7.776C165.914 6.976 166.879 6.576 168.116 6.576C168.756 6.576 169.322 6.68267 169.812 6.896C170.303 7.09867 170.714 7.38667 171.044 7.76C171.375 8.12267 171.626 8.55467 171.796 9.056C171.967 9.54667 172.052 10.0747 172.052 10.64V10.832H170.708V10.64C170.698 10.2773 170.639 9.92533 170.532 9.584C170.436 9.24267 170.282 8.944 170.068 8.688C169.866 8.42133 169.604 8.21333 169.284 8.064C168.964 7.904 168.575 7.824 168.116 7.824C167.252 7.824 166.602 8.13867 166.164 8.768C165.738 9.39733 165.524 10.224 165.524 11.248V13.552C165.524 14.6507 165.738 15.4987 166.164 16.096C166.602 16.6827 167.252 16.976 168.116 16.976Z" fill="#374151"/>
<path d="M26.912 16.752V15.752H25.912V16.752H26.912ZM27.872 16.752V17.752H28.872V16.752H27.872ZM27.872 8.048H28.872V7.048H27.872V8.048ZM26.912 8.048H25.912V9.048H26.912V8.048ZM26.912 6.8V5.8H25.912V6.8H26.912ZM32.848 7.024L32.5023 7.96238L32.5101 7.96519L32.848 7.024ZM33.888 7.632L33.2097 8.3668L33.2166 8.37317L33.2236 8.37941L33.888 7.632ZM34.528 8.56L33.5939 8.91714L33.6004 8.93396L33.6074 8.95055L34.528 8.56ZM34.608 10.752L35.5443 11.1031V11.1031L34.608 10.752ZM34.208 11.44L33.4431 10.7959L33.4431 10.7959L34.208 11.44ZM33.6 11.968L34.1264 12.8183L34.1369 12.8117L33.6 11.968ZM32.864 12.288L32.5944 11.325L31.864 11.5295V12.288H32.864ZM32.864 12.48H31.864V13.2385L32.5944 13.443L32.864 12.48ZM34.208 13.344L33.446 13.9917L33.4542 14.0011L34.208 13.344ZM34.528 16.24L33.6033 15.8593L33.6004 15.8663L33.5976 15.8735L34.528 16.24ZM33.888 17.168L34.5663 17.9028L34.5674 17.9018L33.888 17.168ZM32.848 17.776L32.5101 16.8348L32.5023 16.8377L32.848 17.776ZM26.912 18H25.912V19H26.912V18ZM29.216 16.752H28.216V17.752H29.216V16.752ZM32.88 16.288L33.4969 17.0751L33.5034 17.07L33.5098 17.0648L32.88 16.288ZM32.912 13.52L32.2372 14.258L32.2431 14.2634L32.249 14.2686L32.912 13.52ZM29.216 13.008V12.008H28.216V13.008H29.216ZM29.216 11.76H28.216V12.76H29.216V11.76ZM32.912 11.264L32.249 10.5154H32.249L32.912 11.264ZM32.88 8.528L32.2502 9.30476L32.2566 9.30996L32.2631 9.31506L32.88 8.528ZM29.216 8.048V7.048H28.216V8.048H29.216ZM26.912 16.752V17.752H27.872V16.752V15.752H26.912V16.752ZM27.872 16.752H28.872V8.048H27.872H26.872V16.752H27.872ZM27.872 8.048V7.048H26.912V8.048V9.048H27.872V8.048ZM26.912 8.048H27.912V6.8H26.912H25.912V8.048H26.912ZM26.912 6.8V7.8H31.44V6.8V5.8H26.912V6.8ZM31.44 6.8V7.8C31.8821 7.8 32.2302 7.8621 32.5023 7.96234L32.848 7.024L33.1937 6.08566C32.6551 5.88723 32.0646 5.8 31.44 5.8V6.8ZM32.848 7.024L32.5101 7.96519C32.8213 8.07689 33.0462 8.2159 33.2097 8.3668L33.888 7.632L34.5663 6.8972C34.1751 6.53609 33.7067 6.26978 33.1859 6.0828L32.848 7.024ZM33.888 7.632L33.2236 8.37941C33.3908 8.52799 33.5121 8.70312 33.5939 8.91714L34.528 8.56L35.4621 8.20286C35.2666 7.69155 34.9612 7.24801 34.5524 6.88459L33.888 7.632ZM34.528 8.56L33.6074 8.95055C33.6999 9.16851 33.752 9.41829 33.752 9.712H34.752H35.752C35.752 9.17371 35.6548 8.65549 35.4486 8.16945L34.528 8.56ZM34.752 9.712H33.752V9.904H34.752H35.752V9.712H34.752ZM34.752 9.904H33.752C33.752 10.109 33.7204 10.2709 33.6717 10.4009L34.608 10.752L35.5443 11.1031C35.6876 10.7211 35.752 10.3176 35.752 9.904H34.752ZM34.608 10.752L33.6717 10.4009C33.6144 10.5536 33.538 10.6832 33.4431 10.7959L34.208 11.44L34.9729 12.0841C35.2193 11.7915 35.4096 11.4624 35.5443 11.1031L34.608 10.752ZM34.208 11.44L33.4431 10.7959C33.3411 10.917 33.2164 11.0268 33.0631 11.1243L33.6 11.968L34.1369 12.8117C34.453 12.6105 34.7336 12.3683 34.9729 12.0841L34.208 11.44ZM33.6 11.968L33.0736 11.1177C32.9335 11.2045 32.7752 11.2744 32.5944 11.325L32.864 12.288L33.1336 13.251C33.4861 13.1523 33.8185 13.0088 34.1264 12.8183L33.6 11.968ZM32.864 12.288H31.864V12.48H32.864H33.864V12.288H32.864ZM32.864 12.48L32.5944 13.443C32.9336 13.5379 33.2109 13.715 33.4461 13.9916L34.208 13.344L34.9699 12.6964C34.4798 12.1197 33.8611 11.7207 33.1336 11.517L32.864 12.48ZM34.208 13.344L33.4542 14.0011C33.6416 14.216 33.752 14.4872 33.752 14.88H34.752H35.752C35.752 14.0568 35.4997 13.304 34.9618 12.6869L34.208 13.344ZM34.752 14.88H33.752V15.072H34.752H35.752V14.88H34.752ZM34.752 15.072H33.752C33.752 15.3654 33.7 15.6246 33.6033 15.8593L34.528 16.24L35.4527 16.6208C35.6547 16.1301 35.752 15.6106 35.752 15.072H34.752ZM34.528 16.24L33.5976 15.8735C33.516 16.0805 33.3907 16.2657 33.2086 16.4342L33.888 17.168L34.5674 17.9018C34.9613 17.537 35.2626 17.1035 35.4584 16.6065L34.528 16.24ZM33.888 17.168L33.2097 16.4332C33.0462 16.5841 32.8213 16.7231 32.5101 16.8348L32.848 17.776L33.1859 18.7172C33.7067 18.5302 34.1751 18.2639 34.5663 17.9028L33.888 17.168ZM32.848 17.776L32.5023 16.8377C32.2302 16.9379 31.8821 17 31.44 17V18V19C32.0646 19 32.6551 18.9128 33.1937 18.7143L32.848 17.776ZM31.44 18V17H26.912V18V19H31.44V18ZM26.912 18H27.912V16.752H26.912H25.912V18H26.912ZM29.216 16.752V17.752H31.344V16.752V15.752H29.216V16.752ZM31.344 16.752V17.752C32.1389 17.752 32.8853 17.5544 33.4969 17.0751L32.88 16.288L32.2631 15.5009C32.0853 15.6403 31.8078 15.752 31.344 15.752V16.752ZM32.88 16.288L33.5098 17.0648C34.1621 16.5359 34.472 15.8006 34.472 14.976H33.472H32.472C32.472 15.2607 32.3873 15.4001 32.2502 15.5112L32.88 16.288ZM33.472 14.976H34.472V14.88H33.472H32.472V14.976H33.472ZM33.472 14.88H34.472C34.472 14.0667 34.1968 13.3221 33.575 12.7714L32.912 13.52L32.249 14.2686C32.3739 14.3792 32.472 14.5413 32.472 14.88H33.472ZM32.912 13.52L33.5868 12.782C32.984 12.2309 32.213 12.008 31.392 12.008V13.008V14.008C31.851 14.008 32.0933 14.1265 32.2372 14.258L32.912 13.52ZM31.392 13.008V12.008H29.216V13.008V14.008H31.392V13.008ZM29.216 13.008H28.216V16.752H29.216H30.216V13.008H29.216ZM29.216 11.76V12.76H31.392V11.76V10.76H29.216V11.76ZM31.392 11.76V12.76C32.2051 12.76 32.9718 12.5469 33.575 12.0126L32.912 11.264L32.249 10.5154C32.1056 10.6424 31.8589 10.76 31.392 10.76V11.76ZM32.912 11.264L33.575 12.0126C34.1968 11.4619 34.472 10.7173 34.472 9.904H33.472H32.472C32.472 10.2427 32.3739 10.4048 32.249 10.5154L32.912 11.264ZM33.472 9.904H34.472V9.808H33.472H32.472V9.904H33.472ZM33.472 9.808H34.472C34.472 8.98669 34.156 8.25759 33.4969 7.74094L32.88 8.528L32.2631 9.31506C32.3933 9.41708 32.472 9.54131 32.472 9.808H33.472ZM32.88 8.528L33.5098 7.75124C32.8977 7.25497 32.1464 7.048 31.344 7.048V8.048V9.048C31.8003 9.048 32.0729 9.16103 32.2502 9.30476L32.88 8.528ZM31.344 8.048V7.048H29.216V8.048V9.048H31.344V8.048ZM29.216 8.048H28.216V11.76H29.216H30.216V8.048H29.216ZM42.8529 10.064V9.064H41.8529V10.064H42.8529ZM44.1009 10.064H45.1009V9.064H44.1009V10.064ZM44.1009 18V19H45.1009V18H44.1009ZM42.8529 18H41.8529V19H42.8529V18ZM42.8529 16.56H43.8529V15.56H42.8529V16.56ZM42.6609 16.56V15.56H42.0428L41.7664 16.1128L42.6609 16.56ZM41.6529 17.776L42.2361 18.5883V18.5883L41.6529 17.776ZM38.8529 18L39.2243 17.0715L39.2172 17.0687L39.21 17.0659L38.8529 18ZM37.9089 17.36L37.1615 18.0244L37.1682 18.032L37.1751 18.0394L37.9089 17.36ZM37.3009 16.288L36.3498 16.5971L36.3533 16.6078L36.357 16.6184L37.3009 16.288ZM37.0929 10.064V9.064H36.0929V10.064H37.0929ZM38.3409 10.064H39.3409V9.064H38.3409V10.064ZM38.8529 16.464L39.6003 15.7996V15.7996L38.8529 16.464ZM42.1969 16.272L41.4299 15.6303L41.4287 15.6318L42.1969 16.272ZM42.8529 10.064V11.064H44.1009V10.064V9.064H42.8529V10.064ZM44.1009 10.064H43.1009V18H44.1009H45.1009V10.064H44.1009ZM44.1009 18V17H42.8529V18V19H44.1009V18ZM42.8529 18H43.8529V16.56H42.8529H41.8529V18H42.8529ZM42.8529 16.56V15.56H42.6609V16.56V17.56H42.8529V16.56ZM42.6609 16.56L41.7664 16.1128C41.5744 16.497 41.3389 16.7704 41.0697 16.9637L41.6529 17.776L42.2361 18.5883C42.7988 18.1843 43.2354 17.647 43.5553 17.0072L42.6609 16.56ZM41.6529 17.776L41.0697 16.9637C40.862 17.1128 40.5524 17.224 40.0689 17.224V18.224V19.224C40.8653 19.224 41.6117 19.0366 42.2361 18.5883L41.6529 17.776ZM40.0689 18.224V17.224C39.7476 17.224 39.4695 17.1696 39.2243 17.0715L38.8529 18L38.4815 18.9285C38.9829 19.129 39.5155 19.224 40.0689 19.224V18.224ZM38.8529 18L39.21 17.0659C38.9924 16.9827 38.8062 16.8572 38.6426 16.6806L37.9089 17.36L37.1751 18.0394C37.5449 18.4388 37.988 18.7399 38.4957 18.9341L38.8529 18ZM37.9089 17.36L38.6563 16.6956C38.5006 16.5204 38.3583 16.2822 38.2447 15.9576L37.3009 16.288L36.357 16.6184C36.5421 17.1471 36.8052 17.6236 37.1615 18.0244L37.9089 17.36ZM37.3009 16.288L38.2519 15.9789C38.1529 15.6741 38.0929 15.2864 38.0929 14.8H37.0929H36.0929C36.0929 15.4443 36.1716 16.0485 36.3498 16.5971L37.3009 16.288ZM37.0929 14.8H38.0929V10.064H37.0929H36.0929V14.8H37.0929ZM37.0929 10.064V11.064H38.3409V10.064V9.064H37.0929V10.064ZM38.3409 10.064H37.3409V14.64H38.3409H39.3409V10.064H38.3409ZM38.3409 14.64H37.3409C37.3409 15.5741 37.5266 16.4771 38.1055 17.1284L38.8529 16.464L39.6003 15.7996C39.4965 15.6829 39.3409 15.3699 39.3409 14.64H38.3409ZM38.8529 16.464L38.1055 17.1284C38.6992 17.7963 39.5415 18.04 40.4209 18.04V17.04V16.04C39.8923 16.04 39.6892 15.8997 39.6003 15.7996L38.8529 16.464ZM40.4209 17.04V18.04C41.4296 18.04 42.3212 17.6849 42.9651 16.9122L42.1969 16.272L41.4287 15.6318C41.2192 15.8831 40.9268 16.04 40.4209 16.04V17.04ZM42.1969 16.272L42.9638 16.9137C43.5884 16.1672 43.8529 15.2263 43.8529 14.192H42.8529H41.8529C41.8529 14.8857 41.68 15.3314 41.4299 15.6303L42.1969 16.272ZM42.8529 14.192H43.8529V10.064H42.8529H41.8529V14.192H42.8529ZM49.7698 6.912L50.4769 7.61911L50.4769 7.61911L49.7698 6.912ZM51.3538 6.912L50.6296 7.60165L50.6464 7.61932L50.6641 7.63614L51.3538 6.912ZM51.3538 8.496L50.6466 7.78889L50.6466 7.78889L51.3538 8.496ZM49.7698 8.496L49.0456 9.18565L49.0624 9.20332L49.0801 9.22014L49.7698 8.496ZM47.1777 16.848V15.848H46.1777V16.848H47.1777ZM49.9618 16.848V17.848H50.9618V16.848H49.9618ZM49.9618 11.216H50.9618V10.216H49.9618V11.216ZM47.4657 11.216H46.4657V12.216H47.4657V11.216ZM47.4657 10.064V9.064H46.4657V10.064H47.4657ZM51.2098 10.064H52.2098V9.064H51.2098V10.064ZM51.2098 16.848H50.2098V17.848H51.2098V16.848ZM53.8018 16.848H54.8018V15.848H53.8018V16.848ZM53.8018 18V19H54.8018V18H53.8018ZM47.1777 18H46.1777V19H47.1777V18ZM49.4498 7.696H50.4498C50.4498 7.6763 50.4514 7.66366 50.4527 7.65673C50.454 7.65 50.4552 7.64685 50.4556 7.6459C50.456 7.64498 50.4567 7.64324 50.4589 7.63999C50.4612 7.63661 50.4664 7.62953 50.4769 7.61911L49.7698 6.912L49.0626 6.20489C48.6565 6.61101 48.4498 7.12896 48.4498 7.696H49.4498ZM49.7698 6.912L50.4769 7.61911C50.5059 7.59002 50.5221 7.58318 50.525 7.58198C50.5274 7.58098 50.5387 7.576 50.5697 7.576V6.576V5.576C49.9881 5.576 49.4691 5.79842 49.0626 6.20489L49.7698 6.912ZM50.5697 6.576V7.576C50.5865 7.576 50.5962 7.57749 50.6002 7.57828C50.604 7.57902 50.6047 7.57951 50.6038 7.57914C50.603 7.57878 50.6038 7.57897 50.607 7.5812C50.6103 7.58356 50.618 7.58951 50.6296 7.60165L51.3538 6.912L52.0779 6.22234C51.6758 5.80016 51.1528 5.576 50.5697 5.576V6.576ZM51.3538 6.912L50.6641 7.63614C50.6762 7.6477 50.6822 7.65543 50.6845 7.65876C50.6868 7.66192 50.687 7.66278 50.6866 7.66192C50.6862 7.66106 50.6867 7.66179 50.6875 7.66559C50.6883 7.66959 50.6898 7.67923 50.6898 7.696H51.6898H52.6898C52.6898 7.11299 52.4656 6.58994 52.0434 6.18786L51.3538 6.912ZM51.6898 7.696H50.6898C50.6898 7.72704 50.6848 7.73838 50.6838 7.74077C50.6826 7.74362 50.6757 7.75981 50.6466 7.78889L51.3538 8.496L52.0609 9.20311C52.4673 8.79663 52.6898 8.27762 52.6898 7.696H51.6898ZM51.3538 8.496L50.6466 7.78889C50.6362 7.79932 50.6291 7.80455 50.6258 7.80683C50.6225 7.80902 50.6208 7.80978 50.6199 7.81015C50.6189 7.81054 50.6158 7.81177 50.609 7.81302C50.6021 7.81432 50.5895 7.816 50.5697 7.816V8.816V9.816C51.1368 9.816 51.6547 9.60922 52.0609 9.20311L51.3538 8.496ZM50.5697 8.816V7.816C50.5324 7.816 50.5155 7.81007 50.5091 7.80752C50.5028 7.80497 50.4864 7.7976 50.4594 7.77186L49.7698 8.496L49.0801 9.22014C49.49 9.61056 50.0036 9.816 50.5697 9.816V8.816ZM49.7698 8.496L50.4939 7.80634C50.4681 7.77932 50.4608 7.76298 50.4582 7.75661C50.4557 7.75023 50.4498 7.73332 50.4498 7.696H49.4498H48.4498C48.4498 8.26211 48.6552 8.77571 49.0456 9.18565L49.7698 8.496ZM47.1777 16.848V17.848H49.9618V16.848V15.848H47.1777V16.848ZM49.9618 16.848H50.9618V11.216H49.9618H48.9618V16.848H49.9618ZM49.9618 11.216V10.216H47.4657V11.216V12.216H49.9618V11.216ZM47.4657 11.216H48.4657V10.064H47.4657H46.4657V11.216H47.4657ZM47.4657 10.064V11.064H51.2098V10.064V9.064H47.4657V10.064ZM51.2098 10.064H50.2098V16.848H51.2098H52.2098V10.064H51.2098ZM51.2098 16.848V17.848H53.8018V16.848V15.848H51.2098V16.848ZM53.8018 16.848H52.8018V18H53.8018H54.8018V16.848H53.8018ZM53.8018 18V17H47.1777V18V19H53.8018V18ZM47.1777 18H48.1777V16.848H47.1777H46.1777V18H47.1777ZM56.7826 16.848V15.848H55.7826V16.848H56.7826ZM59.6626 16.848V17.848H60.6626V16.848H59.6626ZM59.6626 7.952H60.6626V6.952H59.6626V7.952ZM56.8786 7.952H55.8786V8.952H56.8786V7.952ZM56.8786 6.8V5.8H55.8786V6.8H56.8786ZM60.9106 6.8H61.9106V5.8H60.9106V6.8ZM60.9106 16.848H59.9106V17.848H60.9106V16.848ZM63.7906 16.848H64.7906V15.848H63.7906V16.848ZM63.7906 18V19H64.7906V18H63.7906ZM56.7826 18H55.7826V19H56.7826V18ZM56.7826 16.848V17.848H59.6626V16.848V15.848H56.7826V16.848ZM59.6626 16.848H60.6626V7.952H59.6626H58.6626V16.848H59.6626ZM59.6626 7.952V6.952H56.8786V7.952V8.952H59.6626V7.952ZM56.8786 7.952H57.8786V6.8H56.8786H55.8786V7.952H56.8786ZM56.8786 6.8V7.8H60.9106V6.8V5.8H56.8786V6.8ZM60.9106 6.8H59.9106V16.848H60.9106H61.9106V6.8H60.9106ZM60.9106 16.848V17.848H63.7906V16.848V15.848H60.9106V16.848ZM63.7906 16.848H62.7906V18H63.7906H64.7906V16.848H63.7906ZM63.7906 18V17H56.7826V18V19H63.7906V18ZM56.7826 18H57.7826V16.848H56.7826H55.7826V18H56.7826ZM72.7235 16.784H73.7235V15.784H72.7235V16.784ZM72.5315 16.784V15.784H71.9253L71.6449 16.3214L72.5315 16.784ZM72.0355 17.424L71.3687 16.6788L71.3587 16.6877L71.3489 16.697L72.0355 17.424ZM71.3955 17.872L70.9483 16.9776L70.9398 16.9818L70.9315 16.9862L71.3955 17.872ZM70.6755 18.128L70.4715 17.149L70.4522 17.1531L70.433 17.1579L70.6755 18.128ZM68.4515 17.952L68.0838 18.882L68.4515 17.952ZM67.2355 17.168L66.5284 17.8751L66.5338 17.8805L66.5394 17.8859L67.2355 17.168ZM66.4195 15.904L65.4832 16.2551L65.4876 16.267L65.4924 16.2788L66.4195 15.904ZM66.4355 12.192L67.3626 12.5668L67.3653 12.56L66.4355 12.192ZM67.2515 10.912L67.9586 11.6191L67.964 11.6137L67.9694 11.6081L67.2515 10.912ZM71.4275 10.208L70.9642 11.0942L70.9762 11.1005L70.9883 11.1064L71.4275 10.208ZM72.5315 11.312L71.6409 11.7668L71.9193 12.312H72.5315V11.312ZM72.7235 11.312V12.312H73.7235V11.312H72.7235ZM72.7235 6.8V5.8H71.7235V6.8H72.7235ZM73.9715 6.8H74.9715V5.8H73.9715V6.8ZM73.9715 18V19H74.9715V18H73.9715ZM72.7235 18H71.7235V19H72.7235V18ZM71.1075 16.832L70.7099 15.9144V15.9144L71.1075 16.832ZM71.9395 16.24L71.2175 15.5481L71.2098 15.5561L71.2023 15.5643L71.9395 16.24ZM72.5155 15.328L73.446 15.6945L73.4496 15.6851L72.5155 15.328ZM72.5155 12.768L71.5814 13.1252L71.5851 13.1345L72.5155 12.768ZM71.9395 11.84L71.2023 12.5157L71.2098 12.5239L71.2175 12.5319L71.9395 11.84ZM71.0915 11.248L70.6686 12.1542L70.6865 12.1625L70.7048 12.1702L71.0915 11.248ZM69.0115 11.232L68.6247 10.3097L68.6139 10.3144L69.0115 11.232ZM68.1635 11.824L67.4415 11.1321L67.4338 11.1401L67.4263 11.1483L68.1635 11.824ZM67.6035 12.736L66.6731 12.3695L66.6682 12.3818L66.6637 12.3943L67.6035 12.736ZM67.6035 15.36L66.6637 15.7017L66.6682 15.7142L66.6731 15.7265L67.6035 15.36ZM68.1635 16.272L67.4263 16.9477L67.441 16.9637L67.4564 16.9791L68.1635 16.272ZM69.0115 16.848L68.6139 17.7656L68.6269 17.7712L68.6401 17.7765L69.0115 16.848ZM72.7235 16.784V15.784H72.5315V16.784V17.784H72.7235V16.784ZM72.5315 16.784L71.6449 16.3214C71.5716 16.462 71.4801 16.5791 71.3687 16.6788L72.0355 17.424L72.7023 18.1692C72.9962 17.9062 73.2354 17.5967 73.4181 17.2466L72.5315 16.784ZM72.0355 17.424L71.3489 16.697C71.2276 16.8115 71.0948 16.9043 70.9483 16.9776L71.3955 17.872L71.8427 18.7664C72.1655 18.605 72.4594 18.3991 72.7221 18.151L72.0355 17.424ZM71.3955 17.872L70.9315 16.9862C70.7922 17.0591 70.6401 17.1139 70.4715 17.149L70.6755 18.128L70.8795 19.107C71.2229 19.0354 71.5508 18.9195 71.8595 18.7578L71.3955 17.872ZM70.6755 18.128L70.433 17.1579C70.2466 17.2044 70.083 17.224 69.9395 17.224V18.224V19.224C70.2653 19.224 70.5924 19.1796 70.918 19.0981L70.6755 18.128ZM69.9395 18.224V17.224C69.5217 17.224 69.1516 17.1535 68.8192 17.022L68.4515 17.952L68.0838 18.882C68.6688 19.1132 69.2906 19.224 69.9395 19.224V18.224ZM68.4515 17.952L68.8192 17.022C68.4821 16.8888 68.1886 16.6993 67.9316 16.4501L67.2355 17.168L66.5394 17.8859C66.9864 18.3194 67.5035 18.6525 68.0838 18.882L68.4515 17.952ZM67.2355 17.168L67.9426 16.4609C67.7069 16.2252 67.505 15.9211 67.3466 15.5292L66.4195 15.904L65.4924 16.2788C65.7393 16.8896 66.0814 17.4281 66.5284 17.8751L67.2355 17.168ZM66.4195 15.904L67.3558 15.5529C67.2131 15.1722 67.1315 14.713 67.1315 14.16H66.1315H65.1315C65.1315 14.9083 65.2419 15.6118 65.4832 16.2551L66.4195 15.904ZM66.1315 14.16H67.1315V13.904H66.1315H65.1315V14.16H66.1315ZM66.1315 13.904H67.1315C67.1315 13.3693 67.2161 12.9293 67.3626 12.5668L66.4355 12.192L65.5084 11.8172C65.2496 12.4574 65.1315 13.1587 65.1315 13.904H66.1315ZM66.4355 12.192L67.3653 12.56C67.5247 12.1573 67.7266 11.8511 67.9586 11.6191L67.2515 10.912L66.5444 10.2049C66.0938 10.6555 65.7516 11.2027 65.5057 11.824L66.4355 12.192ZM67.2515 10.912L67.9694 11.6081C68.2113 11.3587 68.4917 11.1714 68.8192 11.042L68.4515 10.112L68.0838 9.18204C67.494 9.41525 66.9744 9.76132 66.5336 10.2159L67.2515 10.912ZM68.4515 10.112L68.8192 11.042C69.1563 10.9087 69.5165 10.84 69.9075 10.84V9.84V8.84C69.2745 8.84 68.664 8.95267 68.0838 9.18204L68.4515 10.112ZM69.9075 9.84V10.84C70.2947 10.84 70.6419 10.9257 70.9642 11.0942L71.4275 10.208L71.8908 9.32177C71.2745 8.99962 70.6083 8.84 69.9075 8.84V9.84ZM71.4275 10.208L70.9883 11.1064C71.2629 11.2406 71.4777 11.4472 71.6409 11.7668L72.5315 11.312L73.4221 10.8572C73.0733 10.1741 72.5521 9.64468 71.8667 9.30962L71.4275 10.208ZM72.5315 11.312V12.312H72.7235V11.312V10.312H72.5315V11.312ZM72.7235 11.312H73.7235V6.8H72.7235H71.7235V11.312H72.7235ZM72.7235 6.8V7.8H73.9715V6.8V5.8H72.7235V6.8ZM73.9715 6.8H72.9715V18H73.9715H74.9715V6.8H73.9715ZM73.9715 18V17H72.7235V18V19H73.9715V18ZM72.7235 18H73.7235V16.784H72.7235H71.7235V18H72.7235ZM70.0675 17.04V18.04C70.5678 18.04 71.0509 17.9464 71.5051 17.7496L71.1075 16.832L70.7099 15.9144C70.5241 15.995 70.3138 16.04 70.0675 16.04V17.04ZM71.1075 16.832L71.5051 17.7496C71.9535 17.5553 72.3466 17.2757 72.6767 16.9157L71.9395 16.24L71.2023 15.5643C71.063 15.7163 70.9015 15.8314 70.7099 15.9144L71.1075 16.832ZM71.9395 16.24L72.6615 16.9319C73.0027 16.5759 73.2628 16.1593 73.4459 15.6945L72.5155 15.328L71.5851 14.9615C71.4909 15.2007 71.367 15.3921 71.2175 15.5481L71.9395 16.24ZM72.5155 15.328L73.4496 15.6851C73.637 15.195 73.7235 14.6721 73.7235 14.128H72.7235H71.7235C71.7235 14.4586 71.6714 14.7357 71.5814 14.9709L72.5155 15.328ZM72.7235 14.128H73.7235V13.936H72.7235H71.7235V14.128H72.7235ZM72.7235 13.936H73.7235C73.7235 13.3998 73.6361 12.8842 73.4459 12.4015L72.5155 12.768L71.5851 13.1345C71.6723 13.3558 71.7235 13.6189 71.7235 13.936H72.7235ZM72.5155 12.768L73.4496 12.4109C73.2678 11.9355 73.0076 11.5092 72.6615 11.1481L71.9395 11.84L71.2175 12.5319C71.3621 12.6828 71.4859 12.8752 71.5814 13.1251L72.5155 12.768ZM71.9395 11.84L72.6767 11.1643C72.3411 10.7983 71.9377 10.5185 71.4782 10.3258L71.0915 11.248L70.7048 12.1702C70.9066 12.2549 71.0685 12.3697 71.2023 12.5157L71.9395 11.84ZM71.0915 11.248L71.5144 10.3418C71.0583 10.129 70.5722 10.024 70.0675 10.024V11.024V12.024C70.2881 12.024 70.4847 12.0683 70.6686 12.1542L71.0915 11.248ZM70.0675 11.024V10.024C69.5669 10.024 69.0829 10.1177 68.6248 10.3098L69.0115 11.232L69.3982 12.1542C69.6014 12.069 69.8214 12.024 70.0675 12.024V11.024ZM69.0115 11.232L68.6139 10.3144C68.1698 10.5069 67.7773 10.7817 67.4415 11.1321L68.1635 11.824L68.8855 12.5159C69.0404 12.3543 69.2132 12.2344 69.4091 12.1496L69.0115 11.232ZM68.1635 11.824L67.4263 11.1483C67.1017 11.5024 66.8527 11.9137 66.6731 12.3695L67.6035 12.736L68.5339 13.1025C68.6317 12.8543 68.7559 12.6576 68.9007 12.4997L68.1635 11.824ZM67.6035 12.736L66.6637 12.3943C66.4907 12.8699 66.4115 13.3768 66.4115 13.904H67.4115H68.4115C68.4115 13.5779 68.4603 13.3061 68.5433 13.0777L67.6035 12.736ZM67.4115 13.904H66.4115V14.16H67.4115H68.4115V13.904H67.4115ZM67.4115 14.16H66.4115C66.4115 14.7023 66.4889 15.2211 66.6637 15.7017L67.6035 15.36L68.5433 15.0183C68.4621 14.7949 68.4115 14.5137 68.4115 14.16H67.4115ZM67.6035 15.36L66.6731 15.7265C66.8527 16.1823 67.1017 16.5936 67.4263 16.9477L68.1635 16.272L68.9007 15.5963C68.7559 15.4384 68.6317 15.2417 68.5339 14.9935L67.6035 15.36ZM68.1635 16.272L67.4564 16.9791C67.7912 17.3139 68.179 17.5771 68.6139 17.7656L69.0115 16.848L69.4091 15.9304C69.204 15.8416 69.0265 15.7208 68.8706 15.5649L68.1635 16.272ZM69.0115 16.848L68.6401 17.7765C69.091 17.9568 69.5708 18.04 70.0675 18.04V17.04V16.04C69.7962 16.04 69.572 15.9952 69.3829 15.9195L69.0115 16.848ZM79.1604 6.912L79.8675 7.61911V7.61911L79.1604 6.912ZM80.7444 6.912L80.0202 7.60165L80.0371 7.61932L80.0547 7.63614L80.7444 6.912ZM80.7444 8.496L80.0373 7.78889V7.78889L80.7444 8.496ZM79.1604 8.496L78.4362 9.18565L78.4531 9.20332L78.4707 9.22014L79.1604 8.496ZM76.5684 16.848V15.848H75.5684V16.848H76.5684ZM79.3524 16.848V17.848H80.3524V16.848H79.3524ZM79.3524 11.216H80.3524V10.216H79.3524V11.216ZM76.8564 11.216H75.8564V12.216H76.8564V11.216ZM76.8564 10.064V9.064H75.8564V10.064H76.8564ZM80.6004 10.064H81.6004V9.064H80.6004V10.064ZM80.6004 16.848H79.6004V17.848H80.6004V16.848ZM83.1924 16.848H84.1924V15.848H83.1924V16.848ZM83.1924 18V19H84.1924V18H83.1924ZM76.5684 18H75.5684V19H76.5684V18ZM78.8404 7.696H79.8404C79.8404 7.6763 79.8421 7.66366 79.8433 7.65673C79.8446 7.65 79.8458 7.64685 79.8462 7.6459C79.8466 7.64498 79.8474 7.64324 79.8495 7.63999C79.8518 7.63661 79.8571 7.62953 79.8675 7.61911L79.1604 6.912L78.4533 6.20489C78.0471 6.61101 77.8404 7.12896 77.8404 7.696H78.8404ZM79.1604 6.912L79.8675 7.61911C79.8966 7.59002 79.9128 7.58318 79.9156 7.58198C79.918 7.58098 79.9293 7.576 79.9604 7.576V6.576V5.576C79.3788 5.576 78.8597 5.79842 78.4533 6.20489L79.1604 6.912ZM79.9604 6.576V7.576C79.9771 7.576 79.9868 7.57749 79.9908 7.57828C79.9946 7.57902 79.9953 7.57951 79.9945 7.57914C79.9936 7.57878 79.9945 7.57897 79.9976 7.5812C80.0009 7.58356 80.0087 7.58951 80.0202 7.60165L80.7444 6.912L81.4685 6.22234C81.0664 5.80016 80.5434 5.576 79.9604 5.576V6.576ZM80.7444 6.912L80.0547 7.63614C80.0669 7.6477 80.0728 7.65543 80.0752 7.65876C80.0774 7.66192 80.0776 7.66278 80.0772 7.66192C80.0769 7.66106 80.0774 7.66179 80.0781 7.66559C80.0789 7.66959 80.0804 7.67923 80.0804 7.696H81.0804H82.0804C82.0804 7.11299 81.8562 6.58994 81.434 6.18786L80.7444 6.912ZM81.0804 7.696H80.0804C80.0804 7.72704 80.0754 7.73838 80.0744 7.74077C80.0732 7.74362 80.0664 7.75981 80.0373 7.78889L80.7444 8.496L81.4515 9.20311C81.858 8.79663 82.0804 8.27762 82.0804 7.696H81.0804ZM80.7444 8.496L80.0373 7.78889C80.0268 7.79932 80.0198 7.80455 80.0164 7.80683C80.0131 7.80902 80.0114 7.80978 80.0105 7.81015C80.0095 7.81054 80.0064 7.81177 79.9996 7.81302C79.9927 7.81432 79.9801 7.816 79.9604 7.816V8.816V9.816C80.5274 9.816 81.0454 9.60922 81.4515 9.20311L80.7444 8.496ZM79.9604 8.816V7.816C79.923 7.816 79.9061 7.81007 79.8998 7.80752C79.8934 7.80497 79.8771 7.7976 79.85 7.77186L79.1604 8.496L78.4707 9.22014C78.8807 9.61056 79.3943 9.816 79.9604 9.816V8.816ZM79.1604 8.496L79.8845 7.80634C79.8588 7.77932 79.8514 7.76298 79.8489 7.75661C79.8463 7.75023 79.8404 7.73332 79.8404 7.696H78.8404H77.8404C77.8404 8.26211 78.0458 8.77571 78.4362 9.18565L79.1604 8.496ZM76.5684 16.848V17.848H79.3524V16.848V15.848H76.5684V16.848ZM79.3524 16.848H80.3524V11.216H79.3524H78.3524V16.848H79.3524ZM79.3524 11.216V10.216H76.8564V11.216V12.216H79.3524V11.216ZM76.8564 11.216H77.8564V10.064H76.8564H75.8564V11.216H76.8564ZM76.8564 10.064V11.064H80.6004V10.064V9.064H76.8564V10.064ZM80.6004 10.064H79.6004V16.848H80.6004H81.6004V10.064H80.6004ZM80.6004 16.848V17.848H83.1924V16.848V15.848H80.6004V16.848ZM83.1924 16.848H82.1924V18H83.1924H84.1924V16.848H83.1924ZM83.1924 18V17H76.5684V18V19H83.1924V18ZM76.5684 18H77.5684V16.848H76.5684H75.5684V18H76.5684ZM87.4212 18V19H88.4212V18H87.4212ZM86.1732 18H85.1732V19H86.1732V18ZM86.1732 10.064V9.064H85.1732V10.064H86.1732ZM87.4212 10.064H88.4212V9.064H87.4212V10.064ZM87.4212 11.408H86.4212V12.408H87.4212V11.408ZM87.6133 11.408V12.408H88.2485L88.5185 11.8329L87.6133 11.408ZM92.3652 10.704L91.6382 11.3907L91.6447 11.3974L92.3652 10.704ZM93.1813 18V19H94.1813V18H93.1813ZM91.9333 18H90.9333V19H91.9333V18ZM91.3733 11.648L92.1175 10.9801V10.9801L91.3733 11.648ZM88.0612 11.808L87.2943 11.1663L87.293 11.1678L88.0612 11.808ZM87.4212 18V17H86.1732V18V19H87.4212V18ZM86.1732 18H87.1732V10.064H86.1732H85.1732V18H86.1732ZM86.1732 10.064V11.064H87.4212V10.064V9.064H86.1732V10.064ZM87.4212 10.064H86.4212V11.408H87.4212H88.4212V10.064H87.4212ZM87.4212 11.408V12.408H87.6133V11.408V10.408H87.4212V11.408ZM87.6133 11.408L88.5185 11.8329C88.6939 11.4593 88.9081 11.229 89.1436 11.0848C89.3823 10.9386 89.7098 10.84 90.1732 10.84V9.84V8.84C89.4207 8.84 88.7136 9.00278 88.0989 9.37924C87.481 9.75771 87.0233 10.3114 86.708 10.9831L87.6133 11.408ZM90.1732 9.84V10.84C90.8629 10.84 91.3134 11.0467 91.6382 11.3906L92.3652 10.704L93.0923 10.0174C92.3291 9.20931 91.3183 8.84 90.1732 8.84V9.84ZM92.3652 10.704L91.6447 11.3974C91.9421 11.7064 92.1813 12.2643 92.1813 13.264H93.1813H94.1813C94.1813 11.981 93.8764 10.8322 93.0858 10.0106L92.3652 10.704ZM93.1813 13.264H92.1813V18H93.1813H94.1813V13.264H93.1813ZM93.1813 18V17H91.9333V18V19H93.1813V18ZM91.9333 18H92.9333V13.52H91.9333H90.9333V18H91.9333ZM91.9333 13.52H92.9333C92.9333 12.559 92.72 11.6514 92.1175 10.9801L91.3733 11.648L90.629 12.3159C90.7732 12.4766 90.9333 12.817 90.9333 13.52H91.9333ZM91.3733 11.648L92.1175 10.9801C91.5261 10.3211 90.7317 10.024 89.8532 10.024V11.024V12.024C90.2548 12.024 90.4738 12.1429 90.629 12.3159L91.3733 11.648ZM89.8532 11.024V10.024C88.837 10.024 87.9443 10.3895 87.2943 11.1663L88.0612 11.808L88.8282 12.4497C89.0529 12.1812 89.3548 12.024 89.8532 12.024V11.024ZM88.0612 11.808L87.293 11.1678C86.677 11.9071 86.4212 12.8445 86.4212 13.872H87.4212H88.4212C88.4212 13.1715 88.5922 12.7329 88.8295 12.4482L88.0612 11.808ZM87.4212 13.872H86.4212V18H87.4212H88.4212V13.872H87.4212ZM102.002 16.784H103.002V15.784H102.002V16.784ZM101.81 16.784V15.784H101.21L100.928 16.3134L101.81 16.784ZM100.754 17.872L101.227 18.7532L101.234 18.7491L100.754 17.872ZM97.8101 17.952L97.4497 18.8848L97.8101 17.952ZM96.5621 17.168L95.866 17.8859L95.8713 17.8911L95.8768 17.8962L96.5621 17.168ZM95.7141 15.904L94.7843 16.272L94.789 16.2839L94.794 16.2956L95.7141 15.904ZM95.7301 12.192L96.6503 12.5836L96.6532 12.5766L95.7301 12.192ZM96.5781 10.912L97.2743 11.6299L97.2798 11.6245L97.2852 11.6191L96.5781 10.912ZM100.786 10.224L100.272 11.0815L100.284 11.089L100.297 11.0961L100.786 10.224ZM101.81 11.312L100.92 11.7671L101.198 12.312H101.81V11.312ZM102.002 11.312V12.312H103.002V11.312H102.002ZM102.002 10.064V9.064H101.002V10.064H102.002ZM103.25 10.064H104.25V9.064H103.25V10.064ZM102.898 20.848L102.191 20.1409L102.183 20.1491L102.175 20.1575L102.898 20.848ZM96.8501 21.2H95.8501V22.2H96.8501V21.2ZM96.8501 20.048V19.048H95.8501V20.048H96.8501ZM100.386 16.832L99.9885 15.9144V15.9144L100.386 16.832ZM101.218 16.24L100.496 15.5481L100.488 15.5561L100.481 15.5643L101.218 16.24ZM101.794 15.328L102.725 15.6945L102.728 15.6851L101.794 15.328ZM101.794 12.768L100.86 13.1252L100.864 13.1345L101.794 12.768ZM101.218 11.84L100.481 12.5157L100.488 12.5239L100.496 12.5319L101.218 11.84ZM100.37 11.248L99.9472 12.1542L99.9652 12.1625L99.9834 12.1702L100.37 11.248ZM98.2901 11.232L97.9034 10.3097L97.8925 10.3144L98.2901 11.232ZM97.4421 11.824L96.7201 11.1321L96.7125 11.1401L96.705 11.1483L97.4421 11.824ZM96.8821 12.736L95.9517 12.3695L95.9469 12.3818L95.9423 12.3943L96.8821 12.736ZM96.8821 15.36L95.9423 15.7017L95.9469 15.7142L95.9517 15.7265L96.8821 15.36ZM97.4421 16.272L96.705 16.9477L96.7197 16.9637L96.735 16.9791L97.4421 16.272ZM98.2901 16.848L97.8925 17.7656L97.9055 17.7712L97.9187 17.7765L98.2901 16.848ZM102.002 16.784V15.784H101.81V16.784V17.784H102.002V16.784ZM101.81 16.784L100.928 16.3134C100.757 16.6334 100.54 16.8492 100.274 16.9949L100.754 17.872L101.234 18.7491C101.864 18.4041 102.351 17.8946 102.692 17.2546L101.81 16.784ZM100.754 17.872L100.281 16.9908C99.9971 17.1433 99.6808 17.224 99.3141 17.224V18.224V19.224C99.9927 19.224 100.636 19.07 101.227 18.7532L100.754 17.872ZM99.3141 18.224V17.224C98.8966 17.224 98.5181 17.1535 98.1705 17.0192L97.8101 17.952L97.4497 18.8848C98.0408 19.1132 98.665 19.224 99.3141 19.224V18.224ZM97.8101 17.952L98.1705 17.0192C97.8204 16.8839 97.5151 16.6917 97.2475 16.4398L96.5621 17.168L95.8768 17.8962C96.3345 18.327 96.8611 18.6574 97.4497 18.8848L97.8101 17.952ZM96.5621 17.168L97.2583 16.4501C97.012 16.2113 96.8012 15.9048 96.6343 15.5124L95.7141 15.904L94.794 16.2956C95.0537 16.9058 95.4082 17.442 95.866 17.8859L96.5621 17.168ZM95.7141 15.904L96.6439 15.536C96.4952 15.1603 96.4101 14.7071 96.4101 14.16H95.4101H94.4101C94.4101 14.9142 94.5277 15.6237 94.7843 16.272L95.7141 15.904ZM95.4101 14.16H96.4101V13.904H95.4101H94.4101V14.16H95.4101ZM95.4101 13.904H96.4101C96.4101 13.3754 96.498 12.9414 96.6503 12.5836L95.7301 12.192L94.81 11.8004C94.5356 12.4453 94.4101 13.1526 94.4101 13.904H95.4101ZM95.7301 12.192L96.6532 12.5766C96.8211 12.1736 97.0318 11.8651 97.2743 11.6299L96.5781 10.912L95.882 10.1941C95.4205 10.6416 95.0658 11.1864 94.807 11.8074L95.7301 12.192ZM96.5781 10.912L97.2852 11.6191C97.5376 11.3668 97.8298 11.1764 98.1705 11.0448L97.8101 10.112L97.4497 9.1792C96.8518 9.41022 96.3227 9.75323 95.871 10.2049L96.5781 10.912ZM97.8101 10.112L98.1705 11.0448C98.5228 10.9087 98.8912 10.84 99.2821 10.84V9.84V8.84C98.6491 8.84 98.0361 8.95266 97.4497 9.1792L97.8101 10.112ZM99.2821 9.84V10.84C99.7059 10.84 100.023 10.9326 100.272 11.0815L100.786 10.224L101.301 9.36651C100.695 9.00338 100.01 8.84 99.2821 8.84V9.84ZM100.786 10.224L100.297 11.0961C100.549 11.2377 100.757 11.4488 100.92 11.7671L101.81 11.312L102.701 10.8569C102.373 10.2152 101.898 9.70094 101.275 9.35186L100.786 10.224ZM101.81 11.312V12.312H102.002V11.312V10.312H101.81V11.312ZM102.002 11.312H103.002V10.064H102.002H101.002V11.312H102.002ZM102.002 10.064V11.064H103.25V10.064V9.064H102.002V10.064ZM103.25 10.064H102.25V19.952H103.25H104.25V10.064H103.25ZM103.25 19.952H102.25C102.25 20.0765 102.22 20.1121 102.191 20.1409L102.898 20.848L103.605 21.5551C104.046 21.1146 104.25 20.5528 104.25 19.952H103.25ZM102.898 20.848L102.175 20.1575C102.163 20.1702 102.143 20.2 102.018 20.2V21.2V22.2C102.619 22.2 103.186 21.9951 103.621 21.5385L102.898 20.848ZM102.018 21.2V20.2H96.8501V21.2V22.2H102.018V21.2ZM96.8501 21.2H97.8501V20.048H96.8501H95.8501V21.2H96.8501ZM96.8501 20.048V21.048H101.57V20.048V19.048H96.8501V20.048ZM101.57 20.048V21.048C101.897 21.048 102.318 20.9523 102.637 20.597C102.939 20.2616 103.002 19.8577 103.002 19.568H102.002H101.002C101.002 19.5983 100.993 19.4344 101.151 19.259C101.327 19.0637 101.531 19.048 101.57 19.048V20.048ZM102.002 19.568H103.002V16.784H102.002H101.002V19.568H102.002ZM99.3461 17.04V18.04C99.8465 18.04 100.33 17.9464 100.784 17.7496L100.386 16.832L99.9885 15.9144C99.8027 15.995 99.5925 16.04 99.3461 16.04V17.04ZM100.386 16.832L100.784 17.7496C101.232 17.5553 101.625 17.2757 101.955 16.9157L101.218 16.24L100.481 15.5643C100.342 15.7163 100.18 15.8314 99.9885 15.9144L100.386 16.832ZM101.218 16.24L101.94 16.9319C102.281 16.5759 102.541 16.1593 102.725 15.6945L101.794 15.328L100.864 14.9615C100.769 15.2007 100.646 15.3921 100.496 15.5481L101.218 16.24ZM101.794 15.328L102.728 15.6851C102.916 15.195 103.002 14.6721 103.002 14.128H102.002H101.002C101.002 14.4586 100.95 14.7357 100.86 14.9709L101.794 15.328ZM102.002 14.128H103.002V13.936H102.002H101.002V14.128H102.002ZM102.002 13.936H103.002C103.002 13.3998 102.915 12.8842 102.725 12.4015L101.794 12.768L100.864 13.1345C100.951 13.3558 101.002 13.6189 101.002 13.936H102.002ZM101.794 12.768L102.728 12.4109C102.546 11.9355 102.286 11.5092 101.94 11.1481L101.218 11.84L100.496 12.5319C100.641 12.6828 100.764 12.8752 100.86 13.1251L101.794 12.768ZM101.218 11.84L101.955 11.1643C101.62 10.7983 101.216 10.5185 100.757 10.3258L100.37 11.248L99.9834 12.1702C100.185 12.2549 100.347 12.3697 100.481 12.5157L101.218 11.84ZM100.37 11.248L100.793 10.3418C100.337 10.129 99.8509 10.024 99.3461 10.024V11.024V12.024C99.5667 12.024 99.7633 12.0683 99.9472 12.1542L100.37 11.248ZM99.3461 11.024V10.024C98.8456 10.024 98.3616 10.1177 97.9034 10.3098L98.2901 11.232L98.6768 12.1542C98.88 12.069 99.1 12.024 99.3461 12.024V11.024ZM98.2901 11.232L97.8925 10.3144C97.4484 10.5069 97.0559 10.7817 96.7201 11.1321L97.4421 11.824L98.1641 12.5159C98.319 12.3543 98.4919 12.2344 98.6877 12.1496L98.2901 11.232ZM97.4421 11.824L96.705 11.1483C96.3804 11.5024 96.1313 11.9137 95.9517 12.3695L96.8821 12.736L97.8125 13.1025C97.9103 12.8543 98.0345 12.6576 98.1793 12.4997L97.4421 11.824ZM96.8821 12.736L95.9423 12.3943C95.7694 12.8699 95.6901 13.3768 95.6901 13.904H96.6901H97.6901C97.6901 13.5779 97.7389 13.3061 97.8219 13.0777L96.8821 12.736ZM96.6901 13.904H95.6901V14.16H96.6901H97.6901V13.904H96.6901ZM96.6901 14.16H95.6901C95.6901 14.7023 95.7675 15.2211 95.9423 15.7017L96.8821 15.36L97.8219 15.0183C97.7407 14.7949 97.6901 14.5137 97.6901 14.16H96.6901ZM96.8821 15.36L95.9517 15.7265C96.1313 16.1823 96.3804 16.5936 96.705 16.9477L97.4421 16.272L98.1793 15.5963C98.0345 15.4384 97.9103 15.2417 97.8125 14.9935L96.8821 15.36ZM97.4421 16.272L96.735 16.9791C97.0698 17.3139 97.4576 17.5771 97.8925 17.7656L98.2901 16.848L98.6877 15.9304C98.4826 15.8416 98.3051 15.7208 98.1492 15.5649L97.4421 16.272ZM98.2901 16.848L97.9187 17.7765C98.3696 17.9568 98.8494 18.04 99.3461 18.04V17.04V16.04C99.0748 16.04 98.8506 15.9952 98.6615 15.9195L98.2901 16.848ZM115.484 10.064V9.064H114.484V10.064H115.484ZM117.932 10.064V11.064H118.932V10.064H117.932ZM118.268 7.152L117.561 6.44489L117.553 6.45311L117.545 6.46152L118.268 7.152ZM122.3 6.8H123.3V5.8H122.3V6.8ZM122.3 7.952V8.952H123.3V7.952H122.3ZM119.18 10.064H118.18V11.064H119.18V10.064ZM122.492 10.064H123.492V9.064H122.492V10.064ZM122.492 11.216V12.216H123.492V11.216H122.492ZM119.18 11.216V10.216H118.18V11.216H119.18ZM119.18 18V19H120.18V18H119.18ZM117.932 18H116.932V19H117.932V18ZM117.932 11.216H118.932V10.216H117.932V11.216ZM115.484 11.216H114.484V12.216H115.484V11.216ZM115.484 10.064V11.064H117.932V10.064V9.064H115.484V10.064ZM117.932 10.064H118.932V8.048H117.932H116.932V10.064H117.932ZM117.932 8.048H118.932C118.932 7.90958 118.966 7.86859 118.991 7.84247L118.268 7.152L117.545 6.46152C117.121 6.90474 116.932 7.46109 116.932 8.048H117.932ZM118.268 7.152L118.975 7.85911C119.004 7.8303 119.039 7.8 119.164 7.8V6.8V5.8C118.563 5.8 118.001 6.00436 117.561 6.44489L118.268 7.152ZM119.164 6.8V7.8H122.3V6.8V5.8H119.164V6.8ZM122.3 6.8H121.3V7.952H122.3H123.3V6.8H122.3ZM122.3 7.952V6.952H119.612V7.952V8.952H122.3V7.952ZM119.612 7.952V6.952C119.285 6.952 118.864 7.04766 118.545 7.40303C118.243 7.73838 118.18 8.14235 118.18 8.432H119.18H120.18C120.18 8.40165 120.189 8.56562 120.031 8.74096C119.855 8.93634 119.651 8.952 119.612 8.952V7.952ZM119.18 8.432H118.18V10.064H119.18H120.18V8.432H119.18ZM119.18 10.064V11.064H122.492V10.064V9.064H119.18V10.064ZM122.492 10.064H121.492V11.216H122.492H123.492V10.064H122.492ZM122.492 11.216V10.216H119.18V11.216V12.216H122.492V11.216ZM119.18 11.216H118.18V18H119.18H120.18V11.216H119.18ZM119.18 18V17H117.932V18V19H119.18V18ZM117.932 18H118.932V11.216H117.932H116.932V18H117.932ZM117.932 11.216V10.216H115.484V11.216V12.216H117.932V11.216ZM115.484 11.216H116.484V10.064H115.484H114.484V11.216H115.484ZM132.513 15.888L131.597 15.4872L131.593 15.4964L132.513 15.888ZM131.649 17.168L132.334 17.8962L132.34 17.8909L132.345 17.8856L131.649 17.168ZM130.369 17.952L130.022 17.014L130.015 17.0165L130.369 17.952ZM127.345 17.952L126.991 18.8875L127.345 17.952ZM126.081 17.168L125.384 17.8856L125.39 17.8909L125.395 17.8962L126.081 17.168ZM125.201 15.888L124.278 16.2726L124.283 16.2843L124.288 16.2959L125.201 15.888ZM125.201 12.208L124.285 11.8072L124.281 11.8164L125.201 12.208ZM126.081 10.912L125.395 10.1844L125.389 10.1894L125.384 10.1944L126.081 10.912ZM127.361 10.112L127.714 11.0475V11.0475L127.361 10.112ZM130.369 10.112L130.015 11.0475V11.0475L130.369 10.112ZM131.633 10.912L130.936 11.6296L130.941 11.6346L130.947 11.6396L131.633 10.912ZM132.513 12.208L131.59 12.5926L131.595 12.6043L131.6 12.6159L132.513 12.208ZM129.921 16.848L130.292 17.7765L130.3 17.7734L130.307 17.7702L129.921 16.848ZM130.785 16.256L130.063 15.5641V15.5641L130.785 16.256ZM131.361 15.344L132.291 15.7105L132.295 15.7011L131.361 15.344ZM131.361 12.768L130.427 13.1252L130.43 13.1345L131.361 12.768ZM129.921 11.248L129.509 12.1594L129.522 12.165L129.534 12.1702L129.921 11.248ZM127.809 11.248L128.195 12.1702L128.208 12.165L128.22 12.1594L127.809 11.248ZM126.369 12.768L127.299 13.1345L127.303 13.1251L126.369 12.768ZM126.369 15.344L125.435 15.7012L125.438 15.7105L126.369 15.344ZM126.945 16.256L127.667 15.5641V15.5641L126.945 16.256ZM127.793 16.848L127.395 17.7656L127.413 17.7734L127.432 17.7806L127.793 16.848ZM132.849 14.128H131.849C131.849 14.6763 131.756 15.1226 131.597 15.4872L132.513 15.888L133.429 16.2888C133.717 15.6294 133.849 14.9024 133.849 14.128H132.849ZM132.513 15.888L131.593 15.4964C131.427 15.885 131.212 16.1982 130.952 16.4504L131.649 17.168L132.345 17.8856C132.811 17.4338 133.172 16.8937 133.433 16.2796L132.513 15.888ZM131.649 17.168L130.963 16.4398C130.703 16.6846 130.393 16.8768 130.022 17.014L130.369 17.952L130.715 18.89C131.325 18.6645 131.869 18.3341 132.334 17.8962L131.649 17.168ZM130.369 17.952L130.015 17.0165C129.65 17.1544 129.269 17.224 128.865 17.224V18.224V19.224C129.506 19.224 130.127 19.1123 130.722 18.8875L130.369 17.952ZM128.865 18.224V17.224C128.447 17.224 128.061 17.1535 127.698 17.0165L127.345 17.952L126.991 18.8875C127.589 19.1131 128.216 19.224 128.865 19.224V18.224ZM127.345 17.952L127.698 17.0165C127.338 16.8803 127.03 16.6881 126.766 16.4398L126.081 17.168L125.395 17.8962C125.857 18.3306 126.392 18.661 126.991 18.8875L127.345 17.952ZM126.081 17.168L126.777 16.4504C126.513 16.1943 126.29 15.8754 126.114 15.4801L125.201 15.888L124.288 16.2959C124.559 16.9032 124.923 17.4377 125.384 17.8856L126.081 17.168ZM125.201 15.888L126.124 15.5034C125.97 15.1343 125.881 14.6822 125.881 14.128H124.881H123.881C123.881 14.8965 124.005 15.6177 124.278 16.2726L125.201 15.888ZM124.881 14.128H125.881V13.936H124.881H123.881V14.128H124.881ZM124.881 13.936H125.881C125.881 13.3942 125.969 12.9555 126.121 12.5996L125.201 12.208L124.281 11.8164C124.005 12.4632 123.881 13.1764 123.881 13.936H124.881ZM125.201 12.208L126.117 12.6088C126.294 12.2031 126.517 11.8821 126.777 11.6296L126.081 10.912L125.384 10.1944C124.919 10.6459 124.555 11.1889 124.285 11.8072L125.201 12.208ZM126.081 10.912L126.767 11.6396C127.044 11.3782 127.358 11.1821 127.714 11.0475L127.361 10.112L127.007 9.17653C126.404 9.40452 125.864 9.74184 125.395 10.1844L126.081 10.912ZM127.361 10.112L127.714 11.0475C128.079 10.9096 128.461 10.84 128.865 10.84V9.84V8.84C128.224 8.84 127.602 8.95173 127.007 9.17653L127.361 10.112ZM128.865 9.84V10.84C129.269 10.84 129.65 10.9096 130.015 11.0475L130.369 10.112L130.722 9.17653C130.127 8.95173 129.506 8.84 128.865 8.84V9.84ZM130.369 10.112L130.015 11.0475C130.369 11.1812 130.673 11.3744 130.936 11.6296L131.633 10.912L132.329 10.1944C131.867 9.74559 131.328 9.40548 130.722 9.17653L130.369 10.112ZM131.633 10.912L130.947 11.6396C131.21 11.8876 131.426 12.1997 131.59 12.5926L132.513 12.208L133.436 11.8234C133.173 11.1923 132.802 10.6404 132.319 10.1844L131.633 10.912ZM132.513 12.208L131.6 12.6159C131.757 12.9674 131.849 13.4003 131.849 13.936H132.849H133.849C133.849 13.1704 133.717 12.4513 133.426 11.8001L132.513 12.208ZM132.849 13.936H131.849V14.128H132.849H133.849V13.936H132.849ZM128.865 17.04V18.04C129.361 18.04 129.841 17.9568 130.292 17.7765L129.921 16.848L129.549 15.9195C129.36 15.9952 129.136 16.04 128.865 16.04V17.04ZM129.921 16.848L130.307 17.7702C130.763 17.5792 131.166 17.304 131.507 16.9479L130.785 16.256L130.063 15.5641C129.913 15.72 129.74 15.8395 129.534 15.9258L129.921 16.848ZM130.785 16.256L131.507 16.9479C131.848 16.5919 132.108 16.1753 132.291 15.7105L131.361 15.344L130.43 14.9775C130.336 15.2167 130.212 15.4081 130.063 15.5641L130.785 16.256ZM131.361 15.344L132.295 15.7011C132.483 15.2083 132.569 14.6796 132.569 14.128H131.569H130.569C130.569 14.4724 130.516 14.7543 130.427 14.9869L131.361 15.344ZM131.569 14.128H132.569V13.936H131.569H130.569V14.128H131.569ZM131.569 13.936H132.569C132.569 13.3998 132.481 12.8842 132.291 12.4015L131.361 12.768L130.43 13.1345C130.518 13.3558 130.569 13.6189 130.569 13.936H131.569ZM131.361 12.768L132.295 12.4109C132.113 11.9355 131.853 11.5092 131.507 11.1481L130.785 11.84L130.063 12.5319C130.207 12.6828 130.331 12.8752 130.427 13.1251L131.361 12.768ZM130.785 11.84L131.507 11.1481C131.166 10.792 130.763 10.5168 130.307 10.3258L129.921 11.248L129.534 12.1702C129.74 12.2565 129.913 12.376 130.063 12.5319L130.785 11.84ZM129.921 11.248L130.332 10.3366C129.869 10.1272 129.376 10.024 128.865 10.024V11.024V12.024C129.1 12.024 129.312 12.0702 129.509 12.1594L129.921 11.248ZM128.865 11.024V10.024C128.354 10.024 127.861 10.1272 127.397 10.3366L127.809 11.248L128.22 12.1594C128.418 12.0702 128.629 12.024 128.865 12.024V11.024ZM127.809 11.248L127.422 10.3258C126.966 10.5168 126.564 10.792 126.223 11.1481L126.945 11.84L127.667 12.5319C127.816 12.376 127.99 12.2565 128.195 12.1702L127.809 11.248ZM126.945 11.84L126.223 11.1481C125.877 11.5092 125.616 11.9355 125.435 12.4109L126.369 12.768L127.303 13.1251C127.398 12.8752 127.522 12.6828 127.667 12.5319L126.945 11.84ZM126.369 12.768L125.438 12.4015C125.248 12.8842 125.161 13.3998 125.161 13.936H126.161H127.161C127.161 13.6189 127.212 13.3558 127.299 13.1345L126.369 12.768ZM126.161 13.936H125.161V14.128H126.161H127.161V13.936H126.161ZM126.161 14.128H125.161C125.161 14.6796 125.246 15.2083 125.435 15.7011L126.369 15.344L127.303 14.9869C127.214 14.7543 127.161 14.4724 127.161 14.128H126.161ZM126.369 15.344L125.438 15.7105C125.621 16.1753 125.882 16.5919 126.223 16.9479L126.945 16.256L127.667 15.5641C127.517 15.4081 127.393 15.2167 127.299 14.9775L126.369 15.344ZM126.945 16.256L126.223 16.9479C126.559 17.2983 126.951 17.5731 127.395 17.7656L127.793 16.848L128.19 15.9304C127.994 15.8456 127.822 15.7257 127.667 15.5641L126.945 16.256ZM127.793 16.848L127.432 17.7806C127.887 17.9567 128.368 18.04 128.865 18.04V17.04V16.04C128.594 16.04 128.36 15.9953 128.154 15.9154L127.793 16.848ZM134.71 10.064V9.064H133.71V10.064H134.71ZM137.59 10.064H138.59V9.064H137.59V10.064ZM137.59 11.12H136.59V12.12H137.59V11.12ZM137.782 11.12V12.12H138.42L138.689 11.5405L137.782 11.12ZM138.646 10.16L139.123 11.0389L139.132 11.0337L139.142 11.0282L138.646 10.16ZM141.862 10.624L142.591 9.93956L141.862 10.624ZM142.646 12.912L142.79 13.9015L143.674 13.7722L143.645 12.8801L142.646 12.912ZM141.334 13.104H140.334V14.261L141.478 14.0935L141.334 13.104ZM140.806 11.52L140.121 12.2488L140.127 12.2544L140.133 12.2599L140.806 11.52ZM138.646 11.216L138.183 10.3294L138.175 10.3337L138.167 10.3381L138.646 11.216ZM138.054 11.744L137.24 11.1628V11.1628L138.054 11.744ZM137.702 12.528L136.731 12.2855V12.2855L137.702 12.528ZM137.59 16.848H136.59V17.848H137.59V16.848ZM139.606 16.848H140.606V15.848H139.606V16.848ZM139.606 18V19H140.606V18H139.606ZM134.518 18H133.518V19H134.518V18ZM134.518 16.848V15.848H133.518V16.848H134.518ZM136.342 16.848V17.848H137.342V16.848H136.342ZM136.342 11.216H137.342V10.216H136.342V11.216ZM134.71 11.216H133.71V12.216H134.71V11.216ZM134.71 10.064V11.064H137.59V10.064V9.064H134.71V10.064ZM137.59 10.064H136.59V11.12H137.59H138.59V10.064H137.59ZM137.59 11.12V12.12H137.782V11.12V10.12H137.59V11.12ZM137.782 11.12L138.689 11.5405C138.814 11.2707 138.963 11.1254 139.123 11.0389L138.646 10.16L138.169 9.28115C137.581 9.59994 137.155 10.0946 136.874 10.6995L137.782 11.12ZM138.646 10.16L139.142 11.0282C139.347 10.911 139.599 10.84 139.926 10.84V9.84V8.84C139.292 8.84 138.691 8.98237 138.149 9.29176L138.646 10.16ZM139.926 9.84V10.84C140.485 10.84 140.854 11.0115 141.133 11.3084L141.862 10.624L142.591 9.93956C141.888 9.19112 140.966 8.84 139.926 8.84V9.84ZM141.862 10.624L141.133 11.3084C141.401 11.594 141.619 12.0876 141.646 12.9439L142.646 12.912L143.645 12.8801C143.608 11.731 143.304 10.6993 142.591 9.93956L141.862 10.624ZM142.646 12.912L142.501 11.9225L141.189 12.1145L141.334 13.104L141.478 14.0935L142.79 13.9015L142.646 12.912ZM141.334 13.104H142.334C142.334 12.239 142.13 11.3724 141.478 10.7801L140.806 11.52L140.133 12.2599C140.185 12.3076 140.334 12.497 140.334 13.104H141.334ZM140.806 11.52L141.49 10.7912C140.941 10.2751 140.259 10.024 139.51 10.024V11.024V12.024C139.784 12.024 139.966 12.1036 140.121 12.2488L140.806 11.52ZM139.51 11.024V10.024C139.049 10.024 138.597 10.1137 138.183 10.3294L138.646 11.216L139.108 12.1026C139.185 12.0623 139.309 12.024 139.51 12.024V11.024ZM138.646 11.216L138.167 10.3381C137.795 10.5406 137.485 10.8196 137.24 11.1628L138.054 11.744L138.867 12.3252C138.942 12.2204 139.026 12.1474 139.124 12.0939L138.646 11.216ZM138.054 11.744L137.24 11.1628C136.999 11.5002 136.833 11.8794 136.731 12.2855L137.702 12.528L138.672 12.7705C138.72 12.5792 138.788 12.4358 138.867 12.3252L138.054 11.744ZM137.702 12.528L136.731 12.2855C136.635 12.6715 136.59 13.0737 136.59 13.488H137.59H138.59C138.59 13.2197 138.619 12.9818 138.672 12.7705L137.702 12.528ZM137.59 13.488H136.59V16.848H137.59H138.59V13.488H137.59ZM137.59 16.848V17.848H139.606V16.848V15.848H137.59V16.848ZM139.606 16.848H138.606V18H139.606H140.606V16.848H139.606ZM139.606 18V17H134.518V18V19H139.606V18ZM134.518 18H135.518V16.848H134.518H133.518V18H134.518ZM134.518 16.848V17.848H136.342V16.848V15.848H134.518V16.848ZM136.342 16.848H137.342V11.216H136.342H135.342V16.848H136.342ZM136.342 11.216V10.216H134.71V11.216V12.216H136.342V11.216ZM134.71 11.216H135.71V10.064H134.71H133.71V11.216H134.71ZM153.791 6.8V5.8H152.469L152.829 7.07218L153.791 6.8ZM155.231 6.8L156.195 6.5343L155.993 5.8H155.231V6.8ZM158.159 17.424L157.195 17.6897L157.398 18.424H158.159V17.424ZM158.351 17.424V18.424H159.113L159.315 17.6897L158.351 17.424ZM161.279 6.8V5.8H160.518L160.315 6.5343L161.279 6.8ZM162.719 6.8L163.682 7.07218L164.041 5.8H162.719V6.8ZM159.551 18V19H160.308L160.514 18.2722L159.551 18ZM156.959 18L155.997 18.2722L156.203 19H156.959V18ZM153.791 6.8V7.8H155.231V6.8V5.8H153.791V6.8ZM155.231 6.8L154.267 7.0657L157.195 17.6897L158.159 17.424L159.123 17.1583L156.195 6.5343L155.231 6.8ZM158.159 17.424V18.424H158.351V17.424V16.424H158.159V17.424ZM158.351 17.424L159.315 17.6897L162.243 7.0657L161.279 6.8L160.315 6.5343L157.387 17.1583L158.351 17.424ZM161.279 6.8V7.8H162.719V6.8V5.8H161.279V6.8ZM162.719 6.8L161.757 6.52782L158.589 17.7278L159.551 18L160.514 18.2722L163.682 7.07218L162.719 6.8ZM159.551 18V17H156.959V18V19H159.551V18ZM156.959 18L157.922 17.7278L154.754 6.52782L153.791 6.8L152.829 7.07218L155.997 18.2722L156.959 18ZM169.284 16.752L169.707 17.6583L169.72 17.6522L169.284 16.752ZM170.084 16.128L169.303 15.5033L169.3 15.5073L170.084 16.128ZM170.548 15.232L169.594 14.9337L169.591 14.9434L169.588 14.9532L170.548 15.232ZM170.708 13.968V12.968H169.708V13.968H170.708ZM172.052 13.968H173.052V12.968H172.052V13.968ZM171.796 15.76L172.741 16.0885L172.743 16.0823L171.796 15.76ZM171.044 17.056L171.783 17.7298L171.788 17.7244L171.793 17.719L171.044 17.056ZM169.812 17.92L170.194 18.8443L170.203 18.8407L170.211 18.8371L169.812 17.92ZM165.22 17.056L165.967 16.391V16.391L165.22 17.056ZM165.22 7.776L164.465 7.12107V7.12107L165.22 7.776ZM169.812 6.896L169.414 7.81307L169.422 7.81674L169.43 7.82026L169.812 6.896ZM171.044 7.76L170.296 8.42303L170.3 8.42843L170.305 8.43375L171.044 7.76ZM171.796 9.056L170.85 9.37827L170.852 9.38452L171.796 9.056ZM172.052 10.832V11.832H173.052V10.832H172.052ZM170.708 10.832H169.708V11.832H170.708V10.832ZM170.708 10.64H171.708V10.6253L171.708 10.6106L170.708 10.64ZM170.532 9.584L169.57 9.85474L169.573 9.86857L169.578 9.88227L170.532 9.584ZM170.068 8.688L169.272 9.29308L169.286 9.31095L169.3 9.32818L170.068 8.688ZM169.284 8.064L168.837 8.95843L168.849 8.96447L168.861 8.97018L169.284 8.064ZM166.164 8.768L165.343 8.1973L165.337 8.20684L166.164 8.768ZM166.164 16.096L165.351 16.6772L165.356 16.6855L165.363 16.6937L166.164 16.096ZM168.116 16.976V17.976C168.679 17.976 169.221 17.8849 169.707 17.6582L169.284 16.752L168.861 15.8458C168.707 15.9178 168.471 15.976 168.116 15.976V16.976ZM169.284 16.752L169.72 17.6522C170.169 17.4347 170.561 17.137 170.868 16.7487L170.084 16.128L169.3 15.5073C169.202 15.631 169.061 15.7493 168.849 15.8518L169.284 16.752ZM170.084 16.128L170.865 16.7527C171.161 16.3828 171.376 15.9664 171.509 15.5108L170.548 15.232L169.588 14.9532C169.528 15.159 169.434 15.3399 169.303 15.5033L170.084 16.128ZM170.548 15.232L171.503 15.5303C171.641 15.0882 171.708 14.63 171.708 14.16H170.708H169.708C169.708 14.4367 169.669 14.6931 169.594 14.9337L170.548 15.232ZM170.708 14.16H171.708V13.968H170.708H169.708V14.16H170.708ZM170.708 13.968V14.968H172.052V13.968V12.968H170.708V13.968ZM172.052 13.968H171.052V14.16H172.052H173.052V13.968H172.052ZM172.052 14.16H171.052C171.052 14.6231 170.983 15.047 170.85 15.4377L171.796 15.76L172.743 16.0823C172.951 15.4704 173.052 14.8275 173.052 14.16H172.052ZM171.796 15.76L170.852 15.4315C170.722 15.8042 170.536 16.1214 170.296 16.393L171.044 17.056L171.793 17.719C172.214 17.244 172.529 16.6972 172.741 16.0885L171.796 15.76ZM171.044 17.056L170.305 16.3822C170.078 16.6316 169.787 16.8407 169.414 17.0029L169.812 17.92L170.211 18.8371C170.819 18.5726 171.349 18.2057 171.783 17.7298L171.044 17.056ZM169.812 17.92L169.43 16.9957C169.083 17.1393 168.652 17.224 168.116 17.224V18.224V19.224C168.861 19.224 169.56 19.1061 170.194 18.8443L169.812 17.92ZM168.116 18.224V17.224C167.106 17.224 166.435 16.9166 165.967 16.391L165.22 17.056L164.473 17.721C165.392 18.7528 166.652 19.224 168.116 19.224V18.224ZM165.22 17.056L165.967 16.391C165.495 15.861 165.18 15.001 165.18 13.648H164.18H163.18C163.18 15.2817 163.559 16.6937 164.473 17.721L165.22 17.056ZM164.18 13.648H165.18V11.152H164.18H163.18V13.648H164.18ZM164.18 11.152H165.18C165.18 9.85267 165.49 8.99143 165.976 8.43093L165.22 7.776L164.465 7.12107C163.564 8.16057 163.18 9.55 163.18 11.152H164.18ZM165.22 7.776L165.976 8.43093C166.447 7.8879 167.115 7.576 168.116 7.576V6.576V5.576C166.643 5.576 165.381 6.0641 164.465 7.12107L165.22 7.776ZM168.116 6.576V7.576C168.645 7.576 169.071 7.66407 169.414 7.81307L169.812 6.896L170.211 5.97893C169.572 5.70126 168.867 5.576 168.116 5.576V6.576ZM169.812 6.896L169.43 7.82026C169.79 7.96871 170.072 8.17081 170.296 8.42303L171.044 7.76L171.793 7.09696C171.355 6.60252 170.816 6.22863 170.194 5.97174L169.812 6.896ZM171.044 7.76L170.305 8.43375C170.536 8.68696 170.72 8.99671 170.85 9.37826L171.796 9.056L172.743 8.73374C172.531 8.11262 172.214 7.55838 171.783 7.08625L171.044 7.76ZM171.796 9.056L170.852 9.38452C170.983 9.76063 171.052 10.1767 171.052 10.64H172.052H173.052C173.052 9.97268 172.951 9.3327 172.741 8.72748L171.796 9.056ZM172.052 10.64H171.052V10.832H172.052H173.052V10.64H172.052ZM172.052 10.832V9.832H170.708V10.832V11.832H172.052V10.832ZM170.708 10.832H171.708V10.64H170.708H169.708V10.832H170.708ZM170.708 10.64L171.708 10.6106C171.695 10.158 171.621 9.71548 171.487 9.28572L170.532 9.584L169.578 9.88227C169.657 10.1352 169.701 10.3967 169.709 10.6694L170.708 10.64ZM170.532 9.584L171.495 9.31325C171.363 8.84529 171.146 8.41874 170.836 8.04782L170.068 8.688L169.3 9.32818C169.418 9.46926 169.509 9.64004 169.57 9.85474L170.532 9.584ZM170.068 8.688L170.864 8.08292C170.558 7.68005 170.166 7.37191 169.707 7.15782L169.284 8.064L168.861 8.97018C169.043 9.05475 169.173 9.16262 169.272 9.29308L170.068 8.688ZM169.284 8.064L169.731 7.16957C169.239 6.92338 168.688 6.824 168.116 6.824V7.824V8.824C168.462 8.824 168.689 8.88462 168.837 8.95843L169.284 8.064ZM168.116 7.824V6.824C166.973 6.824 165.993 7.26155 165.343 8.19734L166.164 8.768L166.985 9.33866C167.21 9.01579 167.531 8.824 168.116 8.824V7.824ZM166.164 8.768L165.337 8.20684C164.765 9.05024 164.524 10.0918 164.524 11.248H165.524H166.524C166.524 10.3562 166.71 9.74443 166.992 9.32916L166.164 8.768ZM165.524 11.248H164.524V13.552H165.524H166.524V11.248H165.524ZM165.524 13.552H164.524C164.524 14.7612 164.756 15.845 165.351 16.6772L166.164 16.096L166.978 15.5148C166.719 15.1523 166.524 14.5402 166.524 13.552H165.524ZM166.164 16.096L165.363 16.6937C166.024 17.5812 167.001 17.976 168.116 17.976V16.976V15.976C167.503 15.976 167.179 15.7842 166.966 15.4983L166.164 16.096Z" fill="#374151" mask="url(#path-8-inside-1_1_90)"/>
</g>
<defs>
<clipPath id="clip0_1_90">
<rect width="173" height="24" fill="white"/>
</clipPath>
</defs>
</svg>
